<?xml version="1.0" encoding="UTF-8"?>
<svg id="Layer_1" xmlns="http://www.w3.org/2000/svg" xmlns:xlink="http://www.w3.org/1999/xlink" version="1.1" viewBox="0 0 600 600">
  <!-- Generator: Adobe Illustrator 30.1.0, SVG Export Plug-In . SVG Version: 2.1.1 Build 136)  -->
  <defs>
    <style>
      .st0 {
        fill: none;
      }

      .st1 {
        clip-path: url(#clippath-1);
      }

      .st2 {
        clip-path: url(#clippath);
      }
    </style>
    <clipPath id="clippath">
      <rect class="st0" x="461.32" y="318.45" width="64.14" height="97.01" transform="translate(126.44 860.34) rotate(-90)"/>
    </clipPath>
    <clipPath id="clippath-1">
      <rect class="st0" x="334.03" y="317.48" width="81.73" height="81.73"/>
    </clipPath>
  </defs>
  <g>
    <path d="M216.77,133.89c1.21.55,2.48.99,3.83.99s2.65-.46,3.89-1c.56-.24.73-1.12.42-1.6-.38-.59-1-.68-1.6-.42-.13.06-.16.07-.07.03-.07.03-.15.06-.23.09-.14.06-.29.11-.44.16-.24.08-.48.16-.73.22-.13.03-.27.07-.4.09-.05.01-.48.07-.18.04-.22.03-.45.04-.67.04s-.44-.02-.67-.04c.31.03-.11-.02-.17-.03-.13-.03-.26-.06-.39-.09-.24-.06-.48-.14-.71-.22-.14-.05-.28-.11-.43-.16.17.07-.24-.11-.28-.12-.56-.25-1.29-.18-1.6.42-.27.51-.18,1.33.42,1.6h0Z"/>
    <path d="M201.02,134.41c1.21.55,2.48.99,3.83.99s2.65-.46,3.89-1c.56-.24.73-1.12.42-1.6-.38-.59-1-.68-1.6-.42-.13.06-.16.07-.07.03-.07.03-.15.06-.23.09-.14.06-.29.11-.44.16-.24.08-.48.16-.73.22-.13.03-.27.07-.4.09-.05.01-.48.07-.18.04-.22.03-.45.04-.67.04s-.44-.02-.67-.04c.31.03-.11-.02-.17-.03-.13-.03-.26-.06-.39-.09-.24-.06-.48-.14-.71-.22-.14-.05-.28-.11-.43-.16.17.07-.24-.11-.28-.12-.56-.25-1.29-.18-1.6.42-.27.51-.18,1.33.42,1.6h0Z"/>
    <path d="M215.31,117.79c.51-4.54.28-9.13-.66-13.61-.46-2.18-1.09-4.33-1.89-6.4-.63-1.62-1.27-4.02-3.28-4.32-1.75-.26-3.85,1.01-5.25,1.94-1.57,1.05-2.98,2.34-4.22,3.76s-2.47,3.1-3.54,4.76c-.91,1.42-1.77,3.25-1.21,4.96.71,2.18,3.29,2.38,5.22,2.45,2.63.09,5.27-.38,7.72-1.35,1.39-.54.78-2.81-.62-2.26-1.67.66-3.41,1.11-5.2,1.23-1.11.08-4.39.43-4.89-.85-.46-1.18.91-2.86,1.51-3.76.86-1.28,1.77-2.52,2.79-3.67s2.1-2.2,3.33-3.06c.63-.44,1.29-.83,1.98-1.17.51-.25,1.69-.94,2.24-.57.51.35.81,1.6,1.02,2.13.33.84.64,1.69.92,2.56.53,1.66.96,3.35,1.29,5.06.76,4.01.86,8.11.41,12.17-.17,1.5,2.18,1.48,2.34,0h0Z"/>
    <path d="M203.61,111.33c2,2.64,3.3,5.68,3.82,8.94.1.63.88.97,1.44.82.67-.18.92-.81.82-1.44-.55-3.43-1.95-6.73-4.06-9.5-.38-.5-1.01-.77-1.6-.42-.5.29-.81,1.1-.42,1.6h0Z"/>
    <path d="M234.54,113.24c.36-4.33.25-8.67-.33-12.98-.29-2.13-.64-4.28-1.21-6.36-.44-1.62-1.42-2.93-3.13-3.29-3.66-.77-6.54,2.78-8.41,5.41-1.16,1.62-2.14,3.37-3.02,5.16-.8,1.62-1.61,3.42-.97,5.23.71,1.98,2.56,2.55,4.48,2.08,2.28-.57,4.52-1.42,6.7-2.28,1.38-.55.78-2.82-.62-2.26-1.96.78-3.95,1.48-5.97,2.08-.79.23-1.85.69-2.32-.26-.36-.72-.07-1.6.21-2.3.76-1.86,1.81-3.67,2.91-5.34,1.03-1.57,2.24-3.16,3.73-4.32,1.31-1.03,3.4-1.58,4.08.4s.93,4.07,1.21,6.07c.61,4.29.69,8.65.33,12.96-.13,1.5,2.22,1.49,2.34,0h0Z"/>
    <path d="M224,107.9c1.68,2.58,2.5,5.35,2.34,8.42-.03.63.56,1.17,1.17,1.17.66,0,1.14-.54,1.17-1.17.18-3.44-.79-6.72-2.66-9.6-.34-.53-1.04-.75-1.6-.42-.53.31-.77,1.07-.42,1.6h0Z"/>
    <path d="M194.05,140.21c-1.93,3.26-4.26,6.25-7,8.87-1.17,1.12-2.82,2.12-3.56,3.61s-.05,3,.95,4.19c1.07,1.27,2.3,2.57,3.83,3.28,1.61.75,3.36.66,5.07.38,3.42-.57,6.75-1.79,9.79-3.45,3.39-1.85,6.44-4.31,8.98-7.21.99-1.13-.66-2.8-1.66-1.66-2.46,2.82-5.38,5.17-8.68,6.94-1.66.89-3.39,1.62-5.18,2.18s-3.8,1.17-5.7,1.07c-2.06-.11-3.56-1.67-4.79-3.19-.28-.35-.66-.81-.59-1.3s.65-.91.99-1.22c.74-.66,1.49-1.29,2.2-1.97,2.87-2.76,5.34-5.92,7.37-9.35.77-1.3-1.26-2.48-2.02-1.18h0Z"/>
    <path d="M188.2,151.96c.1,0,.2,0,.3,0,.07,0,.26.04.1,0,.19.04.38.09.57.16-.12-.05,0,0,.05.03.09.05.18.09.26.14s.17.11.26.16l.1.07c-.06-.05-.06-.05,0,0,.68.55,1.08,1.08,1.51,1.74.95,1.48,1.52,3.01,1.78,4.78.09.57.77.92,1.29.84.59-.09.98-.55,1.02-1.15.08-1.57-.93-2.83-1.92-3.94-.92-1.04-1.86-2.09-2.94-2.97-.59-.48-1.23-1.04-1.95-1.3-.82-.3-1.89-.01-2.14.92-.22.83.3,1.57.75,2.23.39.58.82,1.14,1.29,1.66,1.03,1.16,2.28,2.14,3.63,2.91.41.23.93.2,1.3-.09.4-.32.49-.74.42-1.23-.39-2.53-2.37-4.67-4.77-5.46-.64-.21-1.38-.36-2.06-.26-.93.15-1.54.89-1.63,1.81-.12,1.33.84,2.57,1.62,3.55.95,1.19,2.16,2.18,3.49,2.91.55.3,1.28.14,1.6-.42.76-1.32.19-2.81-.61-3.96s-1.71-2.01-2.83-2.75c-.52-.34-1.31-.12-1.6.42-.52.97-.05,1.97.93,2.36.59.23,1.29-.26,1.44-.82.18-.67-.23-1.21-.82-1.44.52.23.68.59.47,1.08l-1.6.42c.64.42,1.39,1.11,1.84,1.69.27.36.55.76.72,1.17-.05-.12.12.47.09.28,0,0,.05.38.02.18l-.03.12c.05-.09.04-.07-.04.06l1.6-.42c-1.19-.65-2.04-1.38-2.94-2.45-.09-.11-.1-.13-.05-.06-.05-.07-.1-.13-.15-.2-.1-.14-.19-.27-.28-.41-.17-.26-.35-.54-.48-.83.11.23-.04-.17-.05-.21-.03-.14-.03-.14,0,0,0-.06,0-.13,0-.19-.03.16-.02.17,0,.04-.02.09-.06.16-.11.22-.14.15-.51.13-.14.14.06,0,.12,0,.19.01-.12-.02-.12-.02.02,0,.15.03.29.06.44.1s.29.08.43.13c.07.02.14.05.21.08-.11-.05-.1-.04.03.02.27.14.53.28.78.44.06.04.12.09.18.13-.09-.07-.08-.06.03.02.12.1.23.19.34.3s.21.21.32.32c.03.03.3.36.18.2.18.24.34.49.49.76.07.13.14.27.2.4-.09-.2.07.21.08.24.09.29.16.58.2.88l1.72-1.32c-1.07-.61-1.85-1.2-2.71-2.07-.21-.21-.41-.43-.61-.66-.21-.24-.31-.36-.46-.57-.18-.24-.35-.49-.51-.74-.07-.11-.14-.22-.2-.33-.04-.07-.09-.15-.13-.22.05.13.06.27.04.42l-.3.52c-.13.16-.4.14-.56.19-.08-.01-.09-.01-.02,0,.06.02.06.02,0-.01-.1-.1.11.08.14.09.08.05.15.1.23.15.34.23.56.4.85.64.63.53,1.21,1.12,1.77,1.72s1.08,1.16,1.57,1.77c.05.07.02.01.1.13.05.07.1.14.15.21.11.16.2.33.29.5.09.19-.06-.22.05.13.02.08.05.16.07.24.02.05.03.18.02.05.01.13,0,.25,0,.38l2.3-.31c-.31-2.02-1.08-4-2.25-5.68s-2.8-3.23-4.94-3.14c-.63.03-1.17.52-1.17,1.17,0,.62.54,1.2,1.17,1.17h0Z"/>
    <path d="M199.34,162.9c.59,1.89,1.46,3.7,2.64,5.29.55.75,1.17,1.44,1.79,2.13.52.58,1.12,1.28,1.12,2.1.02,1.79-2.57,1.12-3.47.68-1.41-.68-2.86-1.71-3.47-3.21-.24-.59-.78-1-1.44-.82-.56.15-1.06.85-.82,1.44.67,1.63,1.79,2.9,3.25,3.87s3.43,1.84,5.29,1.5c1.74-.32,3.12-1.84,2.99-3.65-.14-2.01-1.63-3.28-2.83-4.73-1.27-1.53-2.21-3.34-2.8-5.23-.45-1.44-2.71-.82-2.26.62h0Z"/>
    <path d="M212.13,162.02c-.35,2.22-.98,4.41-1.95,6.44-.88,1.85-2.68,4.38-.69,6.21,1.63,1.5,4.4.85,6.19.04,2.07-.95,3.69-2.62,5.13-4.34.4-.49.48-1.18,0-1.66-.42-.42-1.25-.49-1.66,0-1.18,1.42-2.46,2.82-4.11,3.7-.7.38-1.48.66-2.28.75-.44.05-1.42.17-1.74-.27-.42-.58.33-1.63.59-2.11.46-.84.86-1.71,1.22-2.59.73-1.78,1.25-3.64,1.55-5.55.1-.62-.16-1.26-.82-1.44-.56-.15-1.34.19-1.44.82h0Z"/>
    <path d="M236.84,170.78c2.47,8.8,3.02,18.12,1.53,27.14-.72,4.39-1.9,8.71-3.54,12.84-.77,1.94-1.68,3.85-3.8,4.52-1.93.61-4.09.28-6.04-.04l.86,1.13c.63-6.66.76-13.33-.29-19.95-1.32-8.35-4.57-16.24-9.29-23.25-.84-1.24-2.87-.07-2.02,1.18,4.62,6.86,7.77,14.51,9.06,22.69,1.01,6.4.82,12.9.21,19.33-.04.46.39,1.05.86,1.13,3.12.51,6.74.97,9.46-1.04,1.41-1.04,2.22-2.57,2.89-4.15.76-1.81,1.42-3.67,1.99-5.54,2.31-7.54,3.22-15.53,2.68-23.39-.3-4.47-1.07-8.91-2.28-13.22-.41-1.45-2.67-.83-2.26.62h0Z"/>
    <path d="M229.42,186.47c2.01,9.68,1.46,20.1-1.46,29.54-.45,1.44,1.81,2.06,2.26.62,3.05-9.85,3.56-20.7,1.46-30.79-.31-1.48-2.57-.85-2.26.62h0Z"/>
    <path d="M218.76,125.41c-3.38.75-5.86,3.67-6.21,7.09s2.18,6.75,5.52,7.74c2.64.79,5.86.32,8.07-1.35,2.67-2.01,3.24-5.45,1.94-8.43-1.49-3.43-5.6-5.84-9.32-5.05-1.47.31-.85,2.57.62,2.26,4.43-.94,9.57,5.32,5.82,8.96-3.03,2.95-9.74,1.84-10.33-2.84-.36-2.89,1.75-5.51,4.51-6.12,1.47-.33.85-2.59-.62-2.26h0Z"/>
    <path d="M196.59,136.42c.65-5.33,4.01-10.18,8.66-12.81,1.31-.74.13-2.77-1.18-2.02-5.43,3.07-9.06,8.67-9.82,14.83-.08.63.59,1.17,1.17,1.17.7,0,1.09-.54,1.17-1.17h0Z"/>
    <path d="M221.31,118.34c3.62-.84,7.29-.44,10.12,2.13,3.04,2.76,5.06,6.89,5.51,10.96.52,4.66-1.19,9.27-.27,13.92.64,3.2,2.61,5.66,4.97,7.8,1.28,1.16,2.6,2.27,3.83,3.49,1.51,1.51,2.85,3.21,4.19,4.87,2.15,2.67,4.32,5.49,5.27,8.84.89,3.16,1.04,6.87.16,10.04-.76,2.72-2.42,4.98-4.44,6.91-4.63,4.43-10.34,7.51-12.87,13.72-.57,1.4,1.7,2,2.26.62,2.28-5.6,7.87-8.56,12.08-12.51,2.15-2.02,3.94-4.38,4.93-7.18,1.18-3.31,1.14-7.06.54-10.49s-2.32-6.45-4.39-9.23c-2.53-3.37-5.22-6.62-8.38-9.42-2.5-2.21-5.03-4.38-5.81-7.78-1.11-4.81.89-9.75.15-14.61-.68-4.47-2.98-9.07-6.49-12s-7.71-3.36-11.98-2.37c-1.47.34-.85,2.6.62,2.26h0Z"/>
    <path d="M257.62,177.02c3.47-4.34,3.99-9.9,3.21-15.24-.39-2.65-1.09-5.24-2.02-7.75-.42-1.15-.87-2.31-1.41-3.41-.49-1-2.15-2.65-1.62-3.86.35-.8,1.56-1.23,2.31-1.48,1.4-.47,2.87-.7,4.33-.89,1.29-.17,2.73-.48,4.01-.13,1.39.38,2.02,1.66,2.44,2.94,1.98,6.17,1.11,13.88-1.46,19.76-2.23,5.08-5.6,11.1-11.38,12.53-1.46.36-.84,2.62.62,2.26,5.75-1.42,9.11-6.47,11.71-11.4,3.38-6.41,4.44-13.71,3.39-20.85-.42-2.87-1.31-6.38-4.4-7.4-1.45-.48-2.99-.28-4.47-.1-1.6.2-3.21.4-4.76.84-2.05.58-4.72,1.79-4.78,4.28-.04,1.66,1.11,2.94,1.85,4.32.69,1.28,1.19,2.7,1.66,4.07,2.13,6.17,3.54,14.34-.89,19.88-.93,1.17.71,2.83,1.66,1.66h0Z"/>
  </g>
  <g>
    <path d="M86.36,147.69c-.87,1.78-1.57,3.64-2.03,5.58-.23.97-.39,1.94-.52,2.93s-.25,1.93-.17,2.87.52,1.9,1.49,2.28,1.89.08,2.74-.34c1.63-.78,3.14-1.89,4.55-3.02,1.58-1.27,3.02-2.72,4.29-4.3.4-.49.48-1.18,0-1.66-.41-.41-1.26-.5-1.66,0-1.23,1.53-2.61,2.94-4.14,4.18-.73.6-1.51,1.15-2.31,1.66-.71.45-1.48,1.02-2.29,1.25-.26.07-.23.1-.32-.01-.15-.18,0-1.02,0-1.22.06-1.03.18-2.05.38-3.07.4-2.06,1.07-4.07,1.99-5.95.28-.57.15-1.27-.42-1.6-.52-.3-1.32-.15-1.6.42h0Z"/>
    <path d="M103.02,145.52c-2.41,2.19-4.14,5.16-4.85,8.34-.33,1.46-1.03,4.24,1.01,4.72.81.19,1.76.07,2.57-.03.88-.11,1.74-.26,2.59-.51,1.94-.57,3.7-1.53,5.28-2.77.5-.39.41-1.25,0-1.66-.49-.49-1.16-.39-1.66,0-1.35,1.07-2.94,1.83-4.6,2.27-.8.21-1.61.36-2.44.41-.25.02-.5.02-.74.02-.12,0-.41-.05-.53,0,.36.6.53.7.5.32,0-.12.01-.24.02-.35.01-.21.03-.41.06-.62.4-3.26,2.04-6.28,4.46-8.48,1.12-1.02-.54-2.67-1.66-1.66h0Z"/>
    <path d="M72.32,172.26c4.75,1.2,9.64,1.79,14.53,1.74,1.51-.02,1.51-2.36,0-2.34-4.7.05-9.36-.5-13.91-1.65-1.46-.37-2.09,1.89-.62,2.26h0Z"/>
    <path d="M74.84,178.85c3.75-.35,7.47-1.02,11.11-2.01,1.45-.4.84-2.66-.62-2.26-3.43.94-6.94,1.59-10.48,1.93-.63.06-1.17.5-1.17,1.17,0,.59.54,1.23,1.17,1.17h0Z"/>
    <path d="M100.7,172.83c4.09-.7,8.03-2.27,11.5-4.56.53-.35.75-1.03.42-1.6-.31-.52-1.07-.77-1.6-.42-3.31,2.2-7.02,3.66-10.94,4.33-.62.11-.97.87-.82,1.44.18.66.82.92,1.44.82h0Z"/>
    <path d="M102.33,176.32c3.29-.65,6.62-.93,9.97-.88,1.51.02,1.51-2.32,0-2.34-3.56-.06-7.11.27-10.59.96-.62.12-.98.86-.82,1.44.18.65.82.94,1.44.82h0Z"/>
    <path d="M86.23,169.53c.37.12.75.26,1.13.35.53.12,1.03.12,1.56.02.85-.16,1.62-.68,2.26-1.25.46-.41.45-1.25,0-1.66-.49-.45-1.17-.44-1.66,0-.1.08-.19.17-.29.25l.24-.18c-.27.21-.56.39-.88.52l.28-.12c-.23.1-.47.17-.72.2l.31-.04c-.19.02-.37.02-.56,0l.31.04c-.46-.07-.91-.24-1.35-.39-.58-.19-1.31.22-1.44.82-.15.65.2,1.23.82,1.44h0Z"/>
    <path d="M94.2,168.71c.37.12.75.26,1.13.35.53.12,1.03.12,1.56.02.85-.16,1.62-.68,2.26-1.25.46-.41.45-1.25,0-1.66-.49-.45-1.17-.44-1.66,0-.1.08-.19.17-.29.25l.24-.18c-.27.21-.56.39-.88.52l.28-.12c-.23.1-.47.17-.72.2l.31-.04c-.19.02-.37.02-.56,0l.31.04c-.46-.07-.91-.24-1.35-.39-.58-.19-1.31.22-1.44.82-.15.65.2,1.23.82,1.44h0Z"/>
    <path d="M92.89,174.02l1.08-.11-1.01-1.76-.29.68-.14.33c-.04.1-.08.22-.14.31l.18-.24s-.02.02-.02.02l.24-.18h-.01c.09-.03.19-.07.28-.11h-.02c.1-.01.21-.02.31-.04h-.02c.1.01.21.03.31.04h-.02c.09.03.19.07.28.11-.01,0-.02-.01-.03-.02l.24.18s-.07-.07-.1-.11l.18.24c-.12-.16-.22-.33-.3-.52l.12.28c-.05-.12-.1-.24-.12-.37l.04.31s0-.07,0-.11l-.04.31s.01-.04.02-.06l-.12.28s.02-.03.03-.04l-.18.24s.02-.02.04-.04l-.24.18s.03-.02.04-.03l-.28.12s.03-.01.05-.02l-.31.04s.03,0,.05,0l-.31-.04s.02,0,.03,0l-.28-.12s.02,0,.03.02c.13.09.28.13.44.14.16.03.31.03.47-.02.15-.04.29-.11.4-.21.13-.08.23-.19.3-.33.14-.27.22-.6.12-.9s-.27-.53-.54-.7c0,0-.02-.01-.03-.02-.07-.04-.22-.1-.29-.12-.05-.01-.19-.03-.17-.02-.05,0-.12-.02-.18-.02-.05,0-.17.02-.18.02.02,0-.12,0-.17.02-.01,0-.02,0-.03.01-.09.04-.21.08-.3.13-.05.03-.12.09-.14.11,0,0-.1.07-.13.1,0,0-.02.02-.02.02-.06.06-.15.18-.19.25,0,0-.01.02-.02.03-.04.07-.1.22-.12.29,0,.01,0,.03-.01.04-.02.1-.04.24-.05.34-.01.21.04.43.1.62s.15.4.25.59c.05.11.12.21.19.31.09.12.18.24.28.36.01.02.03.03.05.05.06.06.18.15.25.19.09.06.2.1.3.13.22.05.43.05.65,0,.21-.05.4-.17.55-.31.1-.1.2-.22.25-.35.05-.12.11-.25.16-.37l.37-.86c.11-.18.16-.38.16-.59,0-.21-.05-.41-.16-.59-.1-.18-.24-.32-.42-.42-.18-.11-.38-.16-.59-.16l-1.08.11c-.16,0-.31.03-.45.1-.15.05-.27.13-.38.24-.11.11-.19.23-.24.38-.07.14-.11.29-.1.45.01.3.11.62.34.83l.24.18c.18.11.38.16.59.16h0Z"/>
    <path d="M87.77,179.32c.43,1.55,1.09,3.05,1.99,4.39.47.71,1.02,1.35,1.57,2.01.38.45.86,1.05.8,1.68-.05.46-.41.64-.85.71-.55.08-1.32-.22-1.87-.52-1.09-.58-2.19-1.43-2.63-2.64-.22-.59-.79-1-1.44-.82-.57.16-1.04.84-.82,1.44.53,1.43,1.48,2.54,2.72,3.42s2.92,1.66,4.53,1.39,2.78-1.56,2.71-3.16c-.07-1.74-1.29-2.82-2.27-4.11s-1.73-2.82-2.17-4.42c-.4-1.45-2.66-.84-2.26.62h0Z"/>
    <path d="M98.46,178.04c-.35,1.83-.93,3.61-1.79,5.27s-2.37,3.68-.73,5.34c1.33,1.35,3.72.96,5.29.31,1.84-.76,3.3-2.12,4.61-3.59.42-.47.47-1.19,0-1.66-.43-.43-1.23-.47-1.66,0-1.03,1.16-2.13,2.26-3.53,2.95-.6.29-1.28.49-1.94.52-.29.01-.57,0-.78-.05-.16-.04-.32-.11-.33-.14-.2-.5.34-1.16.58-1.57.39-.67.75-1.36,1.06-2.06.67-1.51,1.18-3.08,1.49-4.7.12-.62-.17-1.26-.82-1.44-.57-.16-1.32.19-1.44.82h0Z"/>
    <path d="M110.1,185.54c1.17,7.61-.76,15.57-5.2,21.85-.41.58-3.36,4.37-3.77,2.6-.17-.73-.07-1.6-.1-2.35-.09-1.8-.33-3.58-.81-5.32-.99-3.58-2.64-6.99-4.31-10.3-.68-1.35-2.7-.16-2.02,1.18,1.67,3.3,3.32,6.69,4.22,10.29.47,1.86.55,3.72.64,5.63.06,1.39.09,3.1,1.67,3.61,1.83.6,3.73-.77,4.87-2.05,2.84-3.19,4.86-7.23,6.09-11.29,1.42-4.7,1.73-9.63.98-14.47-.23-1.49-2.49-.85-2.26.62h0Z"/>
    <path d="M100.88,192.73c.88,3.06,1.63,6.2,1.6,9.41-.02,2.84-.72,5.58-1.66,8.24-.5,1.43,1.76,2.04,2.26.62,1.01-2.86,1.72-5.82,1.74-8.87.02-3.41-.75-6.77-1.69-10.03-.42-1.45-2.68-.83-2.26.62h0Z"/>
    <path d="M79.91,158c-2.68,3.86-3.59,8.75-2.61,13.33.32,1.47,2.58.85,2.26-.62-.86-3.99.05-8.18,2.37-11.52.36-.52.1-1.3-.42-1.6-.58-.34-1.24-.1-1.6.42h0Z"/>
    <path d="M102.11,144.7c4.73-1.74,9.51,1.05,11.77,5.24,2.63,4.85,2.09,10.6.96,15.8-.32,1.47,1.94,2.1,2.26.62,1.32-6.04,1.78-12.7-1.55-18.21-2.85-4.71-8.65-7.7-14.07-5.71-1.4.52-.8,2.78.62,2.26h0Z"/>
    <path d="M115.04,166.98c4.99,5.35,6.62,13.53,6.38,20.65-.13,3.65-1,7.49-3.43,10.32-2.16,2.52-5.47,4.3-8.86,3.75-1.48-.24-2.11,2.02-.62,2.26,3.87.63,7.6-.83,10.37-3.54,2.99-2.92,4.36-6.97,4.77-11.05s-.09-8.75-1.14-12.89-2.89-8.03-5.81-11.16c-1.03-1.1-2.69.55-1.66,1.66h0Z"/>
    <path d="M123.27,189.46c4.51-2.19,7.32-7.04,6.79-12.06-.3-2.78-1.55-5.03-3.18-7.25-1.52-2.07-3.62-4.62-3-7.38.51-2.28,3.19-4.49,5.59-4.19,2.8.35,3.89,3.51,4.29,5.88.88,5.2.81,10.93-.85,15.96s-5.27,9.31-10.61,10.2c-1.48.25-.85,2.51.62,2.26,4.99-.84,9.03-4.59,11.14-9.07,2.57-5.46,2.9-11.68,2.27-17.6-.29-2.7-.72-5.55-2.55-7.68s-4.63-2.85-7.27-1.76c-2.29.95-4.31,2.9-4.89,5.37-.68,2.88.68,5.64,2.32,7.93,2.14,3.01,4.23,5.76,3.79,9.68-.39,3.4-2.61,6.21-5.64,7.68-1.36.66-.17,2.68,1.18,2.02h0Z"/>
  </g>
  <g>
    <path d="M465.72,120.87c.54-4.84.32-9.73-.65-14.5-.5-2.48-1.22-4.92-2.13-7.28-.63-1.62-1.27-4.09-3.24-4.5s-4.24,1.08-5.73,2.07c-1.76,1.17-3.31,2.62-4.68,4.22s-2.66,3.36-3.8,5.16c-.93,1.48-1.82,3.45-1.14,5.2.88,2.26,3.73,2.36,5.79,2.4,2.73.05,5.45-.47,7.99-1.47,1.26-.5.71-2.55-.57-2.05-1.82.72-3.72,1.2-5.67,1.34-.87.06-1.75.07-2.63.01-.82-.05-2.21-.03-2.77-.75-.97-1.24.69-3.42,1.37-4.44.98-1.46,2.02-2.89,3.19-4.2,1.1-1.24,2.31-2.41,3.67-3.37.88-.62,3.77-2.7,4.85-1.86.58.45.89,1.74,1.15,2.38.39.97.74,1.95,1.05,2.94.57,1.77,1.02,3.58,1.36,5.41.82,4.38.94,8.86.45,13.28-.15,1.36,1.98,1.35,2.13,0h0Z"/>
    <path d="M453.38,113.73c2.19,2.88,3.62,6.22,4.18,9.79.09.57.8.88,1.31.74.6-.17.83-.74.74-1.31-.59-3.73-2.12-7.3-4.4-10.3-.35-.46-.92-.7-1.46-.38-.45.26-.73.99-.38,1.46h0Z"/>
    <path d="M481.08,119.01c2.06-4.04,3.72-8.28,4.9-12.65.59-2.18,1.06-4.39,1.41-6.61.31-1.96.36-3.84-1.33-5.18-3.28-2.59-7.99.04-10.92,1.95-1.78,1.16-3.45,2.5-5.04,3.91-1.34,1.19-2.72,2.51-2.91,4.39-.23,2.18,1.24,3.61,3.3,3.93,2.62.4,5.33.47,7.98.49,1.37.01,1.37-2.11,0-2.13-2.29-.02-4.58-.12-6.85-.36-1.14-.12-2.48-.28-2.32-1.76.1-.93.82-1.66,1.46-2.28,2.91-2.81,6.64-5.78,10.61-6.86,1.03-.28,2.19-.38,3.14.2,1.1.68,1.05,1.76.88,2.91-.31,2.16-.78,4.3-1.33,6.41-1.14,4.35-2.75,8.56-4.8,12.57-.62,1.22,1.21,2.3,1.84,1.07h0Z"/>
    <path d="M473.15,109.34c.61,3.17.31,6.36-1.07,9.3-.24.52-.15,1.15.38,1.46.46.27,1.21.14,1.46-.38,1.64-3.49,2.01-7.16,1.29-10.94-.11-.56-.79-.89-1.31-.74-.59.16-.85.74-.74,1.31h0Z"/>
    <path d="M442.97,145.4c-1.42,2.4-3.02,4.67-4.85,6.77s-3.85,3.65-5.71,5.56c-1.68,1.73-1.51,3.68-.03,5.48s3.3,3.66,5.68,4.13c3.73.74,8-1.04,11.39-2.44,3.95-1.63,7.78-3.57,11.45-5.77s7.16-4.46,9.88-7.56c.9-1.03-.6-2.54-1.5-1.5-2.09,2.39-4.77,4.26-7.43,5.97-3.26,2.1-6.68,3.96-10.19,5.59-2.93,1.36-5.99,2.65-9.15,3.36-2.3.52-4.52.64-6.41-.97-.81-.69-1.59-1.51-2.24-2.35-.94-1.22-.44-2,.6-2.92,4.07-3.6,7.58-7.57,10.36-12.26.7-1.18-1.14-2.25-1.84-1.07h0Z"/>
    <path d="M436.41,158.52c.11,0,.22,0,.33,0,.3.01.11-.07,0,0,.04-.02.6.13.62.18,0-.02-.29-.15-.05-.01.1.05.19.1.29.16s.18.12.28.18c.27.16-.12-.12.03.02.32.28.63.57.92.9.07.09.14.17.21.26.12.15-.16-.24.03.04.14.2.29.4.42.61.26.39.49.8.7,1.22.11.22.21.45.32.67.12.24-.14-.37.03.07.04.09.07.18.11.28.35.93.59,1.89.74,2.87.13.83,1.12,1.32,1.87,1.22.86-.12,1.43-.82,1.48-1.67.1-1.83-1.07-3.3-2.21-4.59-1.01-1.14-2.03-2.27-3.2-3.24-.7-.58-1.45-1.2-2.31-1.52-1.1-.41-2.54.07-2.86,1.3-.27,1.04.3,1.93.86,2.75.45.66.94,1.3,1.47,1.89,1.15,1.29,2.54,2.39,4.04,3.24.6.34,1.35.29,1.89-.13.58-.45.72-1.09.61-1.79-.45-2.91-2.75-5.34-5.5-6.25-.77-.25-1.61-.39-2.41-.29-1.23.17-2.04,1.19-2.14,2.39-.13,1.57.96,3.01,1.89,4.17,1.05,1.32,2.41,2.43,3.89,3.24.8.44,1.86.2,2.33-.61.91-1.57.3-3.36-.67-4.74-.88-1.26-1.95-2.3-3.24-3.14-.75-.49-1.91-.17-2.33.61-.3.56-.38,1.15-.2,1.77.22.74.78,1.16,1.47,1.43.83.33,1.9-.36,2.09-1.19.22-.98-.3-1.74-1.19-2.09.86.39,1.12.99.76,1.8l-2.33.61c.12.08.24.16.36.24.26.18-.09-.09.06.04.2.17.41.34.6.52.17.16.34.34.5.51.1.11.19.22.28.33.21.24-.07-.11.05.05.29.41.58.82.79,1.28-.1-.22-.04-.09,0,.06.02.07.04.14.05.2l-.02-.18c.06.08-.06.52.04.08-.07.34.16-.24-.03.09l2.33-.61c-.32-.18-.63-.36-.94-.57-.15-.1-.3-.21-.45-.32-.15-.11-.15-.11.02.01-.07-.06-.14-.11-.21-.17-.56-.47-1.06-1-1.54-1.56-.12-.15-.11-.14.01.02-.06-.07-.11-.15-.16-.22-.11-.15-.21-.3-.31-.45-.05-.07-.56-.87-.52-.9.1.23.11.26.05.09-.02-.07-.04-.15-.06-.22-.04-.19-.03-.15,0,.12,0-.07,0-.14,0-.21-.05.28-.05.34,0,.16-.04.16-.12.31-.23.43-.17.18-.39.28-.66.28.07,0,.14,0,.2,0,.47.02-.21-.06.11,0,.16.03.32.06.48.1s.31.09.47.14c.08.03.15.06.23.09-.22-.09-.24-.1-.07-.03.29.15.58.3.85.48.07.05.13.09.2.14-.18-.14-.2-.16-.05-.04.12.11.25.21.37.32s.23.23.34.35c.06.07.45.46.13.13.22.23.38.55.53.82.07.13.18.29.21.44-.11-.45.01.07.05.16.1.31.17.63.22.95l2.5-1.92c-.57-.32-1.12-.68-1.64-1.07.33.25-.15-.12-.2-.17-.11-.09-.21-.18-.32-.27-.24-.22-.48-.44-.71-.68s-.45-.47-.66-.72c-.09-.11-.18-.22-.27-.32-.12-.15-.12-.15,0,.01-.06-.07-.11-.15-.17-.22-.19-.26-.38-.53-.55-.81-.07-.12-.15-.24-.22-.36-.05-.08-.09-.16-.14-.24.11.24.14.5.09.78l-.44.75-.56.3c-.14.05-.27.05-.41.02-.27,0,.08.08-.14-.04-.29-.15.1.08.1.08.08.05.17.11.25.16.19.12.36.26.55.39.21.15-.19-.16,0,0,.09.08.19.16.29.24.68.58,1.32,1.22,1.93,1.87s1.14,1.28,1.71,1.93c.13.15-.14-.21.04.05.05.08.11.15.16.23.12.18.2.37.31.54.12.19-.1-.35.01.04.03.09.05.17.08.26.08.27.03-.04,0-.05.04.02,0,.38,0,.41l3.34-.45c-.34-2.23-1.2-4.43-2.49-6.29s-3.26-3.73-5.75-3.63c-.89.04-1.74.76-1.7,1.7.04.89.75,1.74,1.7,1.7h0Z"/>
    <path d="M465.79,130.98c-2.87.64-4.98,3.12-5.27,6.02s1.86,5.73,4.69,6.57c2.23.67,4.96.27,6.83-1.14,2.27-1.71,2.77-4.64,1.66-7.18-1.27-2.91-4.76-4.94-7.91-4.27-1.34.28-.77,2.33.57,2.05,3.65-.77,7.87,4.39,4.8,7.38-2.48,2.42-8.02,1.55-8.52-2.32-.31-2.39,1.45-4.55,3.72-5.06,1.34-.3.77-2.35-.57-2.05h0Z"/>
    <path d="M445.33,141.17c.72-5.88,4.4-11.23,9.54-14.14,1.19-.67.12-2.51-1.07-1.84-5.85,3.3-9.78,9.33-10.59,15.98-.07.57.54,1.06,1.06,1.06.63,0,.99-.5,1.06-1.06h0Z"/>
    <path d="M497.87,190.49c3.74-4.66,4.28-10.67,3.44-16.4-.42-2.87-1.19-5.69-2.19-8.42-.46-1.24-.94-2.49-1.52-3.69s-2.36-2.93-1.81-4.32c.37-.94,1.67-1.45,2.55-1.76,1.43-.5,2.94-.76,4.44-.97,1.4-.19,2.91-.5,4.32-.31,1.7.22,2.64,1.41,3.21,2.94,1.33,3.55,1.43,7.81,1.13,11.55-.28,3.42-1,6.85-2.29,10.03-1.22,2.99-2.87,5.98-4.72,8.63s-4.38,4.84-7.65,5.64c-1.33.33-.77,2.38.57,2.05,6.27-1.54,9.61-7.19,12.37-12.54,3.61-7.01,4.66-15.02,3.41-22.77-.5-3.1-1.67-6.78-5.14-7.52-1.6-.34-3.22-.08-4.82.13-1.68.22-3.38.45-5,.96-2.24.71-4.93,2.19-4.55,4.94.23,1.7,1.51,3.02,2.22,4.54.66,1.41,1.21,2.88,1.71,4.36,2.24,6.7,3.62,15.45-1.17,21.41-.85,1.06.65,2.57,1.5,1.5h0Z"/>
    <path d="M473.28,120.2c5.97-1.75,12.63,3.64,14.37,9.11,1.23,3.86,1.22,7.97,1.1,11.98s-.23,8.24.01,12.37c.5,8.56,2,17.03,3.78,25.41.89,4.22,1.86,8.43,2.81,12.64.82,3.63,1.86,7.34,1.79,11.09s-1.8,7.12-5.39,8.67c-3.27,1.42-7.06,1.37-10.55,1.18-1.37-.07-1.36,2.06,0,2.13,6.36.33,14.39-.3,17.15-7.12,1.39-3.42.97-7.27.29-10.81-.85-4.47-1.97-8.9-2.96-13.34-2.06-9.28-3.98-18.64-4.68-28.14-.34-4.63-.28-9.23-.13-13.86.13-4.2.14-8.5-1.1-12.56-2.04-6.65-9.83-12.92-17.05-10.81-1.31.38-.75,2.44.57,2.05h0Z"/>
    <path d="M482.95,192.72c-.8-3.34-3.29-6.14-6.58-7.19-3.46-1.11-7.64-.11-10.08,2.62-2.79,3.12-1.99,7.25-.47,10.77,1.63,3.77,3.88,7.21,6.59,10.28l.75-1.82c-2.58-.34-5.2-.03-7.62.97-1.86.77-3.95,2.25-3.7,4.52.51,4.68,8.37,3.71,11.37,3.26,1.35-.2.78-2.25-.57-2.05-1.9.29-3.91.4-5.83.17-.96-.12-2.84-.46-2.86-1.72-.03-1.58,2.65-2.38,3.81-2.7,1.77-.49,3.58-.56,5.39-.31,1,.13,1.29-1.21.75-1.82-2.12-2.4-3.92-5.05-5.36-7.91s-3.09-6.49-1.29-9.42c1.63-2.65,5.27-3.68,8.16-2.9s4.81,3.07,5.48,5.82c.32,1.33,2.37.77,2.05-.57h0Z"/>
    <path d="M458.44,192.6c-1.78-2.4-4.14-4.6-7.3-4.67-2.98-.06-5.1,1.95-5.87,4.71-1.92,6.88,2.85,13.04,6.97,17.98l1.03-1.78c-1.88-.61-3.9-.51-5.71.29-1.5.66-3.72,2.18-3.14,4.11s3.15,2.27,4.78,2.49c2.49.34,5,.11,7.4-.62,1.31-.4.75-2.45-.57-2.05-2.69.82-6.37,1.24-9.01-.02-1.41-.67,1.18-1.92,1.86-2.15,1.27-.43,2.56-.4,3.82,0,1.09.35,1.66-1.02,1.03-1.78-3.25-3.9-6.9-8.33-6.75-13.71.06-2.29.91-5.04,3.54-5.33s4.65,1.67,6.07,3.59c.81,1.09,2.65.03,1.84-1.07h0Z"/>
    <path d="M466.29,165.05c-1.87-.35-3.6.49-4.73,1.98s-1.61,3.5-1.84,5.36-.26,3.89.44,5.57c.64,1.56,2.33,2.61,3.88,1.48.9-.65,1.15-1.63,1.6-2.59.4-.86,1.12-1.37,2.03-1.54,1.34-.26.77-2.31-.57-2.05-.88.17-1.68.59-2.33,1.2-.74.68-1.04,1.54-1.43,2.43-.16.37-.52,1.22-.97.74s-.5-1.27-.56-1.85c-.21-1.94-.04-3.92.58-5.78.46-1.38,1.6-3.22,3.33-2.9.56.1,1.15-.16,1.31-.74.14-.52-.18-1.2-.74-1.31h0Z"/>
    <path d="M454.88,170.32c-1.87-.35-3.6.49-4.73,1.98s-1.61,3.5-1.84,5.36-.26,3.89.44,5.57c.64,1.56,2.33,2.61,3.88,1.48.9-.65,1.15-1.63,1.6-2.59.4-.86,1.12-1.37,2.03-1.54,1.34-.26.77-2.31-.57-2.05-.88.17-1.68.59-2.33,1.2-.74.68-1.04,1.54-1.43,2.43-.16.37-.52,1.22-.97.74s-.5-1.27-.56-1.85c-.21-1.94-.04-3.92.58-5.78.46-1.38,1.6-3.22,3.33-2.9.56.1,1.15-.16,1.31-.74.14-.52-.18-1.2-.74-1.31h0Z"/>
    <path d="M454.56,166.46c-.62,11.81.89,23.67,4.44,34.95.41,1.3,2.46.75,2.05-.57-3.5-11.11-4.97-22.75-4.37-34.38.07-1.37-2.06-1.36-2.13,0h0Z"/>
    <path d="M468.47,137.17c-.03-.25-.06-.48-.2-.7-.14-.21-.29-.37-.51-.5-.13-.08-.29-.15-.45-.18-.29-.06-.47-.05-.76,0-.32.05-.64.25-.86.48-.23.24-.42.56-.49.88s-.09.7.03,1.03c.1.28.19.43.38.66.11.13.25.23.39.33.29.2.63.28.98.3s.7-.08.99-.24.55-.43.71-.73c.17-.32.25-.64.27-1.01.01-.18-.02-.36-.05-.53-.01-.09-.04-.18-.07-.27-.04-.11-.09-.24-.15-.35-.07-.12-.16-.23-.24-.33-.11-.14-.25-.25-.4-.35-.36-.26-.83-.32-1.25-.22s-.8.44-1.02.82c-.14.23-.25.5-.29.77-.06.36-.08.72.04,1.07.14.43.4.8.79,1.04.27.17.63.26.95.25s.69-.09.95-.28c.22-.16.36-.29.51-.51.07-.1.11-.22.15-.33.02-.04.03-.08.03-.13.04-.14.05-.28.02-.42,0-.14-.05-.27-.13-.4-.13-.22-.38-.43-.64-.49-.27-.06-.58-.05-.82.11-.22.14-.45.37-.49.64,0,.04-.02.09-.03.13l.11-.25s-.04.08-.07.11l.17-.22s-.06.06-.09.09l.22-.17s-.09.06-.15.08l.25-.11c-.07.03-.14.04-.21.05l.28-.04c-.07,0-.14,0-.22,0l.28.04c-.06,0-.12-.02-.17-.05l.25.11c-.05-.02-.11-.05-.15-.09l.22.17s-.08-.07-.11-.11l.17.22c-.05-.06-.08-.12-.11-.19l.11.25c-.03-.08-.05-.16-.07-.24l.04.28c-.01-.11-.01-.22,0-.33l-.04.28c.02-.11.05-.22.09-.33l-.11.25c.05-.11.1-.21.17-.3l-.17.22s.07-.09.12-.12l-.22.17s.08-.05.12-.07l-.25.11s.08-.02.12-.03l-.28.04s.08,0,.12,0l-.28-.04s.09.02.14.04l-.25-.11c.05.03.1.06.15.09l-.22-.17c.06.05.12.11.17.17l-.17-.22c.05.07.09.14.12.21l-.11-.25c.04.09.06.18.07.27l-.04-.28c.01.12.01.23,0,.35l.04-.28c-.02.1-.04.19-.08.28l.11-.25c-.04.08-.08.16-.13.23l.17-.22c-.05.06-.1.11-.15.15l.22-.17c-.05.04-.11.07-.17.1l.25-.11c-.06.02-.12.04-.18.05l.28-.04c-.08.01-.16.01-.24,0l.28.04c-.08-.01-.15-.03-.23-.06l.25.11c-.07-.03-.13-.06-.18-.11l.22.17c-.06-.04-.11-.09-.15-.15l.17.22c-.04-.05-.07-.11-.09-.16l.11.25c-.02-.06-.04-.12-.05-.18l.04.28c-.01-.08,0-.16,0-.24l-.04.28c.01-.08.03-.15.06-.23l-.11.25c.03-.07.06-.13.11-.18l-.17.22c.04-.06.09-.11.15-.15l-.22.17s.09-.06.14-.08l-.25.11c.05-.02.11-.04.16-.04l-.28.04c.06,0,.11,0,.17,0l-.28-.04c.06,0,.11.02.16.05l-.25-.11s.07.04.1.06l-.22-.17s.05.04.07.07l-.17-.22s.03.05.05.08l-.11-.25s.02.05.02.08l-.04-.28v.02c0,.15.03.28.09.41.04.13.12.25.22.34.18.18.49.32.75.31s.56-.1.75-.31c.18-.19.34-.48.31-.75h0Z"/>
    <path d="M454.89,137.17c-.03-.25-.06-.48-.2-.7-.14-.21-.29-.37-.51-.5-.13-.08-.29-.15-.45-.18-.29-.06-.47-.05-.76,0-.32.05-.64.25-.86.48-.23.24-.42.56-.49.88s-.09.7.03,1.03c.1.28.19.43.38.66.11.13.25.23.39.33.29.2.63.28.98.3s.7-.08.99-.24.55-.43.71-.73c.17-.32.25-.64.27-1.01.01-.18-.02-.36-.05-.53-.01-.09-.04-.18-.07-.27-.04-.11-.09-.24-.15-.35-.07-.12-.16-.23-.24-.33-.11-.14-.25-.25-.4-.35-.36-.26-.83-.32-1.25-.22s-.8.44-1.02.82c-.14.23-.25.5-.29.77-.06.36-.08.72.04,1.07.14.43.4.8.79,1.04.27.17.63.26.95.25s.69-.09.95-.28c.22-.16.36-.29.51-.51.07-.1.11-.22.15-.33.02-.04.03-.08.03-.13.04-.14.05-.28.02-.42,0-.14-.05-.27-.13-.4-.13-.22-.38-.43-.64-.49-.27-.06-.58-.05-.82.11-.22.14-.45.37-.49.64,0,.04-.02.09-.03.13l.11-.25s-.04.08-.07.11l.17-.22s-.06.06-.09.09l.22-.17s-.09.06-.15.08l.25-.11c-.07.03-.14.04-.21.05l.28-.04c-.07,0-.14,0-.22,0l.28.04c-.06,0-.12-.02-.17-.05l.25.11c-.05-.02-.11-.05-.15-.09l.22.17s-.08-.07-.11-.11l.17.22c-.05-.06-.08-.12-.11-.19l.11.25c-.03-.08-.05-.16-.07-.24l.04.28c-.01-.11-.01-.22,0-.33l-.04.28c.02-.11.05-.22.09-.33l-.11.25c.05-.11.1-.21.17-.3l-.17.22s.07-.09.12-.12l-.22.17s.08-.05.12-.07l-.25.11s.08-.02.12-.03l-.28.04s.08,0,.12,0l-.28-.04s.09.02.14.04l-.25-.11c.05.03.1.06.15.09l-.22-.17c.06.05.12.11.17.17l-.17-.22c.05.07.09.14.12.21l-.11-.25c.04.09.06.18.07.27l-.04-.28c.01.12.01.23,0,.35l.04-.28c-.02.1-.04.19-.08.28l.11-.25c-.04.08-.08.16-.13.23l.17-.22c-.05.06-.1.11-.15.15l.22-.17c-.05.04-.11.07-.17.1l.25-.11c-.06.02-.12.04-.18.05l.28-.04c-.08.01-.16.01-.24,0l.28.04c-.08-.01-.15-.03-.23-.06l.25.11c-.07-.03-.13-.06-.18-.11l.22.17c-.06-.04-.11-.09-.15-.15l.17.22c-.04-.05-.07-.11-.09-.16l.11.25c-.02-.06-.04-.12-.05-.18l.04.28c-.01-.08,0-.16,0-.24l-.04.28c.01-.08.03-.15.06-.23l-.11.25c.03-.07.06-.13.11-.18l-.17.22c.04-.06.09-.11.15-.15l-.22.17s.09-.06.14-.08l-.25.11c.05-.02.11-.04.16-.04l-.28.04c.06,0,.11,0,.17,0l-.28-.04c.06,0,.11.02.16.05l-.25-.11s.07.04.1.06l-.22-.17s.05.04.07.07l-.17-.22s.03.05.05.08l-.11-.25s.02.05.02.08l-.04-.28v.02c0,.15.03.28.09.41.04.13.12.25.22.34.18.18.49.32.75.31s.56-.1.75-.31c.18-.19.34-.48.31-.75h0Z"/>
    <path d="M461.32,159.17c.49-.15,1-.16,1.46.06.54.26.82.81,1.16,1.28.45.63.96,1.15,1.68,1.46s1.51.37,2.27.22c2.86-.56,4.11-3.97,3.22-6.5-.49-1.39-1.47-2.63-2.83-3.25-.52-.24-1.14-.15-1.46.38-.27.46-.14,1.22.38,1.46,1.12.51,1.79,1.43,2.03,2.63.09.47.06,1.08-.12,1.6s-.56,1.05-1.04,1.35-1.1.4-1.64.17-.84-.87-1.18-1.33c-1.06-1.44-2.76-2.09-4.51-1.57-1.31.39-.75,2.44.57,2.05h0Z"/>
    <path d="M464.96,157.02s.06,0,.1.01l-.28-.04c.15.02.29.06.43.12l-.25-.11c.18.07.34.17.49.29l-.22-.17c.23.18.44.4.62.64l-.17-.22c.25.32.46.67.66,1.02.13.23.38.42.64.49s.59.04.82-.11c.49-.32.68-.94.38-1.46-.32-.56-.68-1.13-1.13-1.59-.24-.25-.52-.47-.82-.64-.4-.22-.8-.33-1.26-.37-.26-.02-.58.14-.75.31-.18.18-.32.49-.31.75s.1.56.31.75l.22.17c.17.1.34.14.54.15h0Z"/>
  </g>
  <g>
    <path d="M333.76,159.13c-.03-2.27.26-4.51.89-6.69.31-1.06.68-2.1,1.15-3.1.23-.49.47-.97.73-1.45.24-.43.51-1.09.87-1.4l-.47.27.14-.03-.82-.11c.23.1.46.54.6.74.23.31.45.63.67.96.46.68.88,1.38,1.27,2.1.76,1.39,1.39,2.85,1.9,4.35.43,1.29,2.49.74,2.05-.57-.75-2.23-1.74-4.38-3-6.37-.58-.92-1.19-1.89-1.93-2.69-.43-.47-1.12-.67-1.7-.33-.45.26-.7.77-.96,1.2-2.38,3.93-3.59,8.53-3.52,13.12.02,1.37,2.15,1.37,2.13,0h0Z"/>
    <path d="M356.9,154.45c.59-4.26,3.95-7.15,8.07-7.92l-1.35-1.03c-1.18,8.87.55,18.08,4.93,25.9,2.35,4.2,5.28,8.02,7.35,12.38s3.32,8.89,3.21,13.62-1.66,11.5-6.79,12.79c-1.33.33-.76,2.38.57,2.05,4.34-1.09,6.7-5.65,7.68-9.66,1.13-4.62.78-9.51-.57-14.05s-3.81-9.1-6.5-13.23-5.23-8.52-6.62-13.46c-1.5-5.32-1.87-10.87-1.14-16.35.1-.74-.75-1.14-1.35-1.03-4.76.89-8.88,4.48-9.56,9.4-.18,1.34,1.87,1.92,2.05.57h0Z"/>
    <path d="M365.63,188.79c-6.24,1.1-10.87,6.37-10.89,12.73,0,1.79.29,3.59.68,5.34.06.26.14.53.19.79.1.55.01-.07-.03-.07-.42,0-.89.09-1.31.14-.78.09-1.53.27-2.16.77-1.08.86-1.31,2.34-.41,3.42,1.11,1.34,3,1.21,4.57,1.27,4.34.16,8.68.19,12.97-.61,1.34-.25.77-2.3-.57-2.05-4.09.76-8.26.68-12.41.53-.64-.02-2.41.17-2.86-.41-.65-.82,1.71-.86,2.06-.91.73-.09,1.51-.24,1.99-.85.53-.68.29-1.44.11-2.2-.86-3.61-1.22-7.56.86-10.84,1.72-2.72,4.63-4.46,7.77-5.01,1.35-.24.78-2.29-.57-2.05h0Z"/>
    <path d="M331.39,162.63c-.05,5.51,1.46,10.88,3.55,15.94,1.01,2.46,2.27,4.8,3.31,7.24s1.74,5.22,1.97,7.95c.44,5.08-.61,10.17-.22,15.23.12,1.55.83,3.74,2.65,3.93,2.28.24,3.24-2.42,3.58-4.2.58-3.04.71-6.21.91-9.29.21-3.44.31-6.89.3-10.35,0-1.37-2.13-1.37-2.13,0,0,5.18-.22,10.35-.71,15.51-.07.73-.48,6.72-1.85,6.14-.58-.25-.63-1.73-.64-2.23-.04-1.28.02-2.58.08-3.86.17-4.28.55-8.55-.07-12.81-.69-4.73-2.93-8.69-4.79-13.02-2.2-5.11-3.86-10.57-3.81-16.18.01-1.37-2.12-1.37-2.13,0h0Z"/>
    <path d="M349.93,192.56c-.61,3.83-.94,7.7-.95,11.58,0,1.8.12,3.67-.44,5.41-.17.52-.64,1.77-1.19.92-.46-.71-.63-1.75-.71-2.57-.13-1.35-2.25-1.36-2.13,0,.16,1.73.69,4.77,2.86,5.02,2.38.27,3.27-2.46,3.55-4.31.36-2.45.14-4.97.25-7.44.11-2.69.38-5.38.81-8.04.21-1.34-1.84-1.92-2.05-.57h0Z"/>
    <path d="M379.29,206.22c4.46-1.84,8.35-5.51,10.07-10.07,1.96-5.2,1.28-11.41.58-16.79-.49-3.8-2.07-11.67-7.34-11.26-2.62.2-3.29,2.64-3.47,4.86-.24,2.93.35,5.87,1.07,8.69,1.45,5.71,3.98,13.17-.91,18-.98.96.53,2.47,1.5,1.5,7.66-7.56.34-18.27.41-27.02,0-.99-.06-2.58.59-3.42.87-1.12,2.43-.22,3.13.58,1.56,1.78,2.23,4.36,2.65,6.63s.59,4.74.73,7.11c.16,2.59.24,5.23-.24,7.79-.95,5.03-4.61,9.39-9.35,11.35-1.25.52-.7,2.57.57,2.05h0Z"/>
    <path d="M342.47,155.24c-.15.12.15-.09.15-.09.12-.07.24-.14.36-.21.24-.13.49-.25.74-.36.66-.29,1.35-.51,2.05-.69,1.7-.45,3.35-.48,5.1-.28.6.07,1.2.17,1.78.32.22.06.44.12.66.2.25.09.23.08.36.14.65.3,1.26.67,1.94.92,1.28.49,1.84-1.57.57-2.05-.07-.03-.26-.11-.09-.03-.08-.03-.16-.07-.23-.11-.15-.07-.3-.15-.44-.23-.37-.2-.75-.38-1.14-.54-1.22-.5-2.55-.67-3.85-.79-1.88-.18-3.7-.03-5.53.49-1.37.39-2.78.92-3.91,1.81-.45.36-.37,1.13,0,1.5.44.45,1.06.36,1.5,0h0Z"/>
    <path d="M346.85,159.4c0-.1-.02-.22-.05-.32-.05-.18-.15-.35-.28-.49-.15-.16-.35-.26-.55-.32-.29-.09-.63-.03-.89.12-.19.11-.35.28-.46.46-.07.11-.12.25-.16.38-.02.06-.04.13-.05.2-.04.21-.07.44-.06.65s.04.43.1.64c.02.06.04.12.06.18.05.14.11.29.19.41.07.11.15.23.25.32.17.15.35.27.57.33.53.14,1.08-.08,1.37-.54.11-.17.17-.38.21-.59.04-.21.07-.43.07-.65s-.03-.45-.07-.67c-.02-.13-.05-.26-.1-.39-.09-.28-.2-.55-.41-.77-.18-.19-.42-.3-.68-.33-.16-.02-.3-.02-.46.02-.1.03-.22.08-.31.14-.23.16-.43.37-.55.63-.08.18-.16.36-.19.55-.03.22-.07.44-.04.66s.05.44.11.65c.08.29.21.55.41.78,0,0,.02.02.03.03.06.06.16.14.23.18.09.05.2.1.3.13.32.09.63.03.91-.12.23-.12.42-.39.49-.64s.04-.59-.11-.82-.36-.43-.64-.49c-.29-.07-.55-.03-.82.11h-.02c.08-.03.17-.06.25-.1h-.02c.09,0,.19-.02.28-.03-.01,0-.03,0-.04,0l.28.04h-.02c.08.03.17.07.25.1-.01,0-.03-.01-.04-.02l.22.17s-.05-.05-.07-.07l.17.22s-.04-.06-.05-.09l.11.25c-.06-.16-.1-.33-.12-.49l.04.28c-.02-.14-.02-.28,0-.42l-.04.28c.01-.1.04-.2.08-.29l-.11.25c.03-.08.07-.15.12-.21l-.17.22s.04-.04.06-.06l-.22.17s.03-.02.05-.03l-.25.11h.03c-.09,0-.19.02-.28.03h.03c-.09-.01-.19-.03-.28-.04h.02c-.08-.03-.17-.07-.25-.1h.02c-.07-.04-.14-.1-.22-.16.01,0,.02.02.03.03l-.17-.22s.04.08.06.12l-.11-.25c.08.2.14.41.17.62l-.04-.28c.02.2.02.41,0,.61l.04-.28c-.02.12-.04.25-.08.36l.11-.25s-.02.03-.03.05l.17-.22s-.02.03-.04.04l.22-.17h-.02c.08-.02.17-.06.25-.1-.01,0-.03.01-.04.01l.28-.04h-.02c.09.01.19.03.28.04-.02,0-.04,0-.07-.02l.25.11s-.03-.02-.04-.03l.22.17s-.07-.06-.09-.09l.17.22c-.04-.06-.07-.12-.1-.18l.11.25c-.06-.14-.09-.27-.11-.42l.04.28c-.02-.15-.02-.29,0-.43l-.04.28c.02-.11.04-.22.08-.32l-.11.25s.03-.06.05-.09l-.17.22s.02-.02.04-.03l-.22.17h.02c-.08.02-.17.06-.25.09.01,0,.03-.01.04-.01l-.28.04h.02c-.09-.01-.19-.03-.28-.04.01,0,.03,0,.04,0l-.25-.11s.03.01.04.02l-.22-.17h.01c-.06-.06-.11-.13-.17-.2v.02c-.02-.08-.06-.17-.1-.25v.02c0-.09-.02-.19-.03-.28v.02c.02.29.11.54.31.75.18.18.49.32.75.31s.56-.1.75-.31.33-.47.31-.75h0Z"/>
    <path d="M352.24,159.19c0-.1-.02-.22-.05-.32-.05-.18-.15-.35-.28-.49-.15-.16-.35-.26-.55-.32-.29-.09-.63-.03-.89.12-.19.11-.35.28-.46.46-.07.11-.12.25-.16.38-.02.06-.04.13-.05.2-.04.21-.07.44-.06.65s.04.43.1.64c.02.06.04.12.06.18.05.14.11.29.19.41.07.11.15.23.25.32.17.15.35.27.57.33.53.14,1.08-.08,1.37-.54.11-.17.17-.38.21-.59.04-.21.07-.43.07-.65s-.03-.45-.07-.67c-.02-.13-.05-.26-.1-.39-.09-.28-.2-.55-.41-.77-.18-.19-.42-.3-.68-.33-.16-.02-.3-.02-.46.02-.1.03-.22.08-.31.14-.23.16-.43.37-.55.63-.08.18-.16.36-.19.55-.03.22-.07.44-.04.66s.05.44.11.65c.08.29.21.55.41.78,0,0,.02.02.03.03.06.06.16.14.23.18.09.05.2.1.3.13.32.09.63.03.91-.12.23-.12.42-.39.49-.64s.04-.59-.11-.82-.36-.43-.64-.49c-.29-.07-.55-.03-.82.11h-.02c.08-.03.17-.06.25-.1h-.02c.09,0,.19-.02.28-.03-.01,0-.03,0-.04,0l.28.04h-.02c.08.03.17.07.25.1-.01,0-.03-.01-.04-.02l.22.17s-.05-.05-.07-.07l.17.22s-.04-.06-.05-.09l.11.25c-.06-.16-.1-.33-.12-.49l.04.28c-.02-.14-.02-.28,0-.42l-.04.28c.01-.1.04-.2.08-.29l-.11.25c.03-.08.07-.15.12-.21l-.17.22s.04-.04.06-.06l-.22.17s.03-.02.05-.03l-.25.11h.03c-.09,0-.19.02-.28.03h.03c-.09-.01-.19-.03-.28-.04h.02c-.08-.03-.17-.07-.25-.1h.02c-.07-.04-.14-.1-.22-.16.01,0,.02.02.03.03l-.17-.22s.04.08.06.12l-.11-.25c.08.2.14.41.17.62l-.04-.28c.02.2.02.41,0,.61l.04-.28c-.02.12-.04.25-.08.36l.11-.25s-.02.03-.03.05l.17-.22s-.02.03-.04.04l.22-.17h-.02c.08-.02.17-.06.25-.1-.01,0-.03.01-.04.01l.28-.04h-.02c.09.01.19.03.28.04-.02,0-.04,0-.07-.02l.25.11s-.03-.02-.04-.03l.22.17s-.07-.06-.09-.09l.17.22c-.04-.06-.07-.12-.1-.18l.11.25c-.06-.14-.09-.27-.11-.42l.04.28c-.02-.15-.02-.29,0-.43l-.04.28c.02-.11.04-.22.08-.32l-.11.25s.03-.06.05-.09l-.17.22s.02-.02.04-.03l-.22.17h.02c-.08.02-.17.06-.25.09.01,0,.03-.01.04-.01l-.28.04h.02c-.09-.01-.19-.03-.28-.04.01,0,.03,0,.04,0l-.25-.11s.03.01.04.02l-.22-.17h.01c-.06-.06-.11-.13-.17-.2v.02c-.02-.08-.06-.17-.1-.25v.02c0-.09-.02-.19-.03-.28v.02c.02.29.11.54.31.75.18.18.49.32.75.31s.56-.1.75-.31.33-.47.31-.75h0Z"/>
    <path d="M348.03,164.02h.57c.18,0,.36-.02.53,0l-.14-.02s.07.01.1.03l-.13-.05s.04.02.07.04l-.11-.08s.03.03.05.05l-.08-.11s.02.03.03.05l-.05-.13s.02.06.02.09l-.02-.14s0,.09,0,.14l.02-.14c-.01.08-.04.15-.07.22l.05-.13c-.08.18-.16.36-.28.52l.08-.11s-.04.05-.07.07l.11-.08s-.04.03-.07.04l.13-.05s-.05.02-.08.02l.14-.02s-.05,0-.08,0l.14.02s-.07-.02-.1-.03l.13.05s-.09-.05-.13-.08l.11.08c-.1-.08-.19-.18-.26-.29l.08.11c-.1-.13-.19-.26-.26-.4l.05.13s-.01-.04-.02-.06l.02.14s0-.04,0-.06l-.02.14s0-.02.01-.03l-.05.13s.01-.02.02-.03l-.08.11s.02-.02.03-.03l-.11.08h.02s-.08.03-.13.04c.01,0,.02,0,.03-.01l-.14.02h.02c.14,0,.27-.06.38-.16.09-.09.16-.24.16-.38s-.05-.28-.16-.38-.24-.16-.38-.16c-.23.01-.43.12-.56.32-.1.16-.13.38-.07.56.06.2.19.38.31.54.15.19.29.37.49.51.21.15.5.22.76.14s.43-.28.56-.51c.1-.18.2-.37.27-.57s.08-.41.04-.61c-.06-.28-.29-.49-.55-.58-.22-.07-.47-.04-.69-.04h-.63c-.28,0-.54.25-.53.53s.23.53.53.53h0Z"/>
    <path d="M347.59,164.78c-.04.11-.08.22-.13.34l.11-.25c-.04.08-.07.16-.12.24-.09.15.02.02.05-.04-.02.04-.07.07-.1.1-.03.03-.14.11,0,0,.15-.11,0,0-.03.02-.08.05-.17.09-.25.13l.25-.11c-.22.09-.45.15-.69.18l.28-.04c-.19.02-.37.02-.56,0l.28.04c-.16-.02-.32-.06-.48-.12l.25.11c-.08-.03-.16-.07-.23-.12-.15-.09.01.03.06.06-.04-.02-.07-.06-.1-.09-.03-.02-.05-.05-.07-.08-.14-.16.06.06.05.07,0,0-.12-.21-.13-.23l.11.25c-.04-.1-.07-.2-.09-.3l.04.28c0-.07-.01-.14-.01-.21,0-.56-.49-1.09-1.06-1.06s-1.06.47-1.06,1.06c0,.65.29,1.32.78,1.76.53.48,1.21.72,1.92.72.61,0,1.28-.16,1.8-.48.32-.2.59-.46.79-.77.18-.27.29-.6.4-.9.19-.52-.21-1.19-.74-1.31-.6-.14-1.11.18-1.31.74h0Z"/>
    <path d="M347.85,164.73c.09.88.51,1.54,1.21,2.07.6.45,1.37.66,2.11.68,1.53.05,3.18-.98,3.41-2.58.04-.29.05-.55-.11-.82-.13-.22-.38-.43-.64-.49-.5-.11-1.22.15-1.31.74-.02.11-.05.22-.08.33-.04.18.08-.14.02-.03-.03.05-.05.1-.08.15s-.06.09-.09.14c-.06.11.17-.19.02-.03-.07.07-.2.16-.25.24.02-.04.17-.12.05-.04-.05.03-.1.06-.15.09-.03.02-.12.09-.16.08l.11-.05s-.07.03-.11.04c-.13.04-.25.07-.38.09-.14.03.26,0,0,0-.07,0-.13,0-.2,0s-.13,0-.2,0c-.16,0,.01-.02.05.01-.05-.05-.31-.06-.38-.08-.05-.02-.11-.03-.16-.05-.22-.08.04,0,.03.02,0,0-.27-.15-.3-.16-.03-.02-.19-.14-.06-.03s-.03-.03-.05-.05c-.03-.03-.06-.06-.09-.09-.02-.02-.04-.05-.07-.07-.05-.06-.03-.03.07.09-.01-.04-.05-.08-.07-.11-.01-.03-.1-.21-.03-.05s0-.02-.01-.06c-.02-.08-.04-.29,0,.02-.03-.29-.1-.54-.31-.75-.18-.18-.49-.32-.75-.31-.53.02-1.13.47-1.06,1.06h0Z"/>
    <path d="M359.32,162.31c3.2-1.32,6.59-2.05,10.05-2.12,1.37-.03,1.37-2.15,0-2.13-3.64.07-7.25.8-10.61,2.2-.53.22-.91.71-.74,1.31.14.5.77.96,1.31.74h0Z"/>
    <path d="M360.86,165.87c2.87-.7,5.87-.77,8.77-.2.56.11,1.15-.16,1.31-.74.14-.52-.18-1.2-.74-1.31-3.28-.65-6.65-.59-9.9.2-1.33.32-.77,2.37.57,2.05h0Z"/>
    <path d="M339.7,162.2c-3.12-.88-6.37-1.31-9.62-1.28-1.37.01-1.37,2.14,0,2.13,3.07-.03,6.1.38,9.05,1.21,1.32.37,1.88-1.68.57-2.05h0Z"/>
    <path d="M339.18,165.6c-1.71.14-3.41.37-5.09.69-1.47.28-2.89.65-4.05,1.65-.43.38-.39,1.12,0,1.5.43.43,1.07.38,1.5,0,.86-.74,2.16-.93,3.27-1.14,1.44-.27,2.9-.46,4.36-.58.57-.05,1.06-.45,1.06-1.06,0-.54-.49-1.11-1.06-1.06h0Z"/>
  </g>
  <g>
    <path d="M116.1,338.1c-.82-7.34.2-14.89,3.19-21.67.37-.83.65-1.46,1.67-1.16.79.23,1.55.61,2.26,1.02,1.42.81,2.68,1.85,3.83,3.02s2.13,2.4,3.06,3.71c.85,1.2,1.91,2.5,2.29,3.95.28,1.09-.07,1.74-1.22,1.98-1,.21-2.06.23-3.08.2-2.17-.05-4.28-.53-6.3-1.32-1.27-.5-1.82,1.55-.56,2.04,2.19.86,4.51,1.34,6.86,1.39,1.84.04,4.45.09,5.78-1.44,2.51-2.87-1.51-7.41-3.23-9.6-2.35-2.98-5.5-6.04-9.29-7.04-2.17-.57-3.28.75-4.07,2.58-.92,2.14-1.67,4.34-2.24,6.6-1.29,5.13-1.65,10.48-1.06,15.74.15,1.34,2.27,1.35,2.12,0h0Z"/>
    <path d="M123.97,330.26c-2.17,2.86-3.62,6.26-4.19,9.8-.09.56.15,1.14.74,1.3.5.14,1.21-.17,1.3-.74.54-3.4,1.89-6.56,3.97-9.3.35-.46.07-1.18-.38-1.45-.54-.32-1.1-.08-1.45.38h0Z"/>
    <path d="M103.18,337.94c-2.13-3.68-3.88-7.55-5.19-11.6-.62-1.93-1.15-3.9-1.58-5.89-.24-1.11-.47-2.21.56-2.97.84-.62,1.95-.59,2.93-.39,3.81.79,7.52,3.42,10.42,5.92.7.6,1.54,1.36,1.56,2.36s-.72,1.23-1.57,1.4c-2.28.45-4.63.63-6.95.78-1.35.09-1.36,2.2,0,2.12,2.27-.14,4.52-.38,6.77-.73,1.68-.26,3.33-.8,3.77-2.65.42-1.75-.57-3.39-1.82-4.53-1.41-1.29-3.02-2.44-4.62-3.48-2.89-1.89-7.49-4.61-11-2.92-1.64.79-2.54,2.37-2.35,4.17.22,2.09.88,4.21,1.48,6.22,1.39,4.63,3.34,9.09,5.77,13.27.68,1.18,2.51.11,1.83-1.07h0Z"/>
    <path d="M106.44,328.94c-.24,1.81-.28,3.59,0,5.4s.91,3.41,1.74,4.96c.65,1.2,2.47.13,1.83-1.07-1.45-2.7-1.95-5.7-1.54-8.73.08-.57-.14-1.14-.74-1.3-.49-.14-1.22.17-1.3.74h0Z"/>
    <path d="M132.7,350.72c4.43.44,8.9.23,13.27-.64.95-.19,2.07-.66,3.05-.59,1.12.08,1.28,1.09,1.49,2.02.44,1.99.72,3.97-.53,5.73-1.07,1.5-2.65,2.75-4.12,3.83-1.55,1.15-3.21,2.16-4.94,3.01-3.51,1.74-7.36,2.8-11.26,3.13-1.35.11-1.36,2.23,0,2.12,7.05-.6,13.79-3.35,19.18-7.95,1.24-1.06,2.51-2.21,3.32-3.65.86-1.52.97-3.2.73-4.9-.21-1.53-.44-3.51-1.62-4.63s-2.94-.82-4.43-.48c-4.64,1.08-9.4,1.35-14.15.88-1.35-.13-1.35,1.98,0,2.12h0Z"/>
    <path d="M144.74,349.22c-.68.85-1.06,1.81-1.05,2.91.01,1.02.3,2.04.66,2.99.74,1.94,1.87,3.7,3.34,5.17l1.28-1.66c-.45-.3-.67-.82-.83-1.32-.23-.73-.37-1.5-.53-2.25-.17-.84-.33-1.69-.41-2.55-.04-.44-.06-.88-.05-1.33,0-.17.06-.41.02-.57-.09-.33.36,0-.28.11h-.56c-.28-.29-.36-.33-.25-.12l.06.14c.07.16.15.33.22.49.11.26.22.53.33.79.26.65.5,1.31.71,1.99.38,1.26.64,2.54.49,3.85l1.81-.75c-1.44-1.44-2.49-3.92-1.91-5.88.07-.23.13-.33.24-.56.13-.27.12-.09,0-.12-.39-.09-.15,0-.13.04.04.1.19.22.25.32.08.13.15.28.21.42.13.3.24.61.33.92.46,1.46.56,2.97.36,4.48l1.06-1.06c-.48-.05-.84-1.18-.98-1.61-.31-.97-.42-1.96-.37-2.98l-1.34,1.02-.35-.72c-.29,1.33,1.75,1.89,2.04.56.18-.82-.25-1.73-1.13-1.89-.7-.12-1.3.29-1.34,1.02-.07,1.43.15,2.88.69,4.21s1.33,2.33,2.78,2.5c.62.07.99-.55,1.06-1.06.2-1.54.09-3.12-.31-4.62-.35-1.32-.98-3.28-2.52-3.62s-2.49,1.34-2.72,2.66-.07,2.55.34,3.75c.46,1.37,1.21,2.66,2.23,3.69.7.7,1.71.12,1.81-.75.16-1.45-.13-2.95-.54-4.34-.21-.7-.46-1.39-.73-2.07s-.51-1.41-.87-2.03c-.45-.78-1.49-1.05-2.19-.41-.62.58-.64,1.47-.64,2.25,0,1.72.33,3.42.69,5.09.34,1.57.76,3.15,2.17,4.09,1.02.67,2.12-.82,1.28-1.66-1.13-1.13-2.05-2.45-2.67-3.93-.5-1.18-1.2-2.99-.28-4.15.35-.45.44-1.06,0-1.5-.37-.37-1.14-.45-1.5,0h0Z"/>
    <path d="M112.5,344.36c1.84-.59,3.95.03,5.05,1.67s.61,3.91-.85,5.24c-1.22,1.12-3.15,1.79-4.76,1.32s-2.34-2.01-2.39-3.48c-.06-1.82,1.08-4.13,2.95-4.75,1.29-.43.74-2.47-.56-2.04-2.5.83-4.22,3.43-4.48,5.99-.23,2.33.85,4.9,3.02,5.96,2.28,1.12,5.11.5,7.08-.99,2.31-1.74,3.47-4.89,2.21-7.61-1.33-2.89-4.84-4.33-7.84-3.36-1.29.42-.74,2.46.56,2.04h0Z"/>
    <path d="M114.53,347.68v-.02c.03.08.06.17.1.25,0-.02-.01-.04-.02-.06l.04.28s0-.07,0-.11l-.04.28s.01-.06.02-.08l-.11.25s.04-.08.07-.12l-.17.21s.06-.07.1-.1l-.21.17s.09-.06.14-.08l-.25.11s.09-.03.14-.04l-.28.04c.06,0,.11,0,.17,0l-.28-.04c.07.01.14.03.21.06l-.25-.11c.06.03.11.06.16.1l-.21-.17c.06.05.12.1.17.17l-.17-.21c.04.05.07.11.1.16l-.11-.25c.02.06.04.12.05.18l-.04-.28c0,.06,0,.13,0,.19l.04-.28c0,.06-.03.12-.05.18l.11-.25c-.03.07-.06.13-.11.19l.17-.21c-.04.06-.09.11-.15.15l.21-.17c-.06.04-.12.08-.18.11l.25-.11c-.06.02-.12.04-.18.05l.28-.04c-.06,0-.13,0-.19,0l.28.04c-.07-.01-.14-.03-.21-.06l.25.11c-.07-.03-.14-.07-.21-.12l.21.17c-.08-.06-.15-.13-.21-.21l.17.21c-.06-.08-.11-.17-.15-.26l.11.25c-.04-.08-.06-.17-.07-.26l.04.28c0-.08,0-.17,0-.25l-.04.28c.01-.08.03-.15.06-.22l-.11.25s.05-.09.08-.14l-.17.21s.06-.07.09-.1l-.21.17s.06-.04.1-.06l-.25.11s.07-.02.11-.03l-.28.04s.09,0,.14,0l-.28-.04c.06.01.11.03.17.05l-.25-.11c.1.04.19.1.27.16l-.21-.17c.09.07.17.15.24.24l-.17-.21c.06.07.1.15.14.24l-.11-.25c.03.08.06.15.07.24l-.04-.28c0,.07,0,.15,0,.22l.04-.28c0,.06-.02.11-.04.17l.11-.25s-.05.09-.08.13l.17-.21s-.08.09-.12.12l.21-.17c-.05.04-.11.07-.17.1l.25-.11c-.07.03-.13.05-.2.06l.28-.04c-.06,0-.11,0-.17,0l.28.04s-.08-.02-.12-.03l.25.11s-.07-.04-.11-.06l.21.17s-.06-.05-.08-.08c-.1-.1-.21-.18-.34-.22-.13-.07-.26-.1-.41-.09-.26,0-.57.12-.75.31s-.32.47-.31.75l.04.28c.05.18.14.33.27.47.18.22.5.4.77.45.3.05.62.07.91-.05s.57-.25.77-.5c.07-.09.15-.18.21-.28s.1-.23.14-.32c.06-.16.08-.33.09-.5.03-.35-.09-.7-.25-1-.12-.23-.3-.45-.5-.62-.13-.1-.26-.21-.41-.29-.22-.12-.42-.19-.66-.22-.1-.01-.18-.03-.28-.02-.12.01-.24.02-.36.06-.25.08-.42.18-.61.35-.22.2-.38.5-.46.78-.09.33-.08.65-.02.98.01.08.04.15.07.22.07.16.13.33.23.47.2.28.43.54.74.71.29.16.64.27.97.25.16-.01.33-.03.49-.08.23-.09.38-.16.57-.31.31-.24.51-.54.65-.91.11-.31.11-.7.02-1.02-.23-.76-.97-1.37-1.79-1.35-.3,0-.5.08-.76.2-.08.04-.15.1-.22.15s-.14.1-.2.17c-.17.2-.3.4-.37.66-.03.12-.05.26-.04.39.02.29.06.37.17.63.07.12.16.22.27.3.1.09.22.16.36.19.25.07.59.04.82-.11s.42-.36.49-.63l.04-.28c0-.19-.05-.37-.14-.53h0Z"/>
    <path d="M124.88,346.46v-.02c.03.08.06.17.1.25,0-.02-.01-.04-.02-.06l.04.28s0-.07,0-.11l-.04.28s.01-.06.02-.08l-.11.25s.04-.08.07-.12l-.17.21s.06-.07.1-.1l-.21.17s.09-.06.14-.08l-.25.11s.09-.03.14-.04l-.28.04c.06,0,.11,0,.17,0l-.28-.04c.07.01.14.03.21.06l-.25-.11c.06.03.11.06.16.1l-.21-.17c.06.05.12.1.17.17l-.17-.21c.04.05.07.11.1.16l-.11-.25c.02.06.04.12.05.18l-.04-.28c0,.06,0,.13,0,.19l.04-.28c0,.06-.03.12-.05.18l.11-.25c-.03.07-.06.13-.11.19l.17-.21c-.04.06-.09.11-.15.15l.21-.17c-.06.04-.12.08-.18.11l.25-.11c-.06.02-.12.04-.18.05l.28-.04c-.06,0-.13,0-.19,0l.28.04c-.07-.01-.14-.03-.21-.06l.25.11c-.07-.03-.14-.07-.21-.12l.21.17c-.08-.06-.15-.13-.21-.21l.17.21c-.06-.08-.11-.17-.15-.26l.11.25c-.04-.08-.06-.17-.07-.26l.04.28c0-.08,0-.17,0-.25l-.04.28c.01-.08.03-.15.06-.22l-.11.25s.05-.09.08-.14l-.17.21s.06-.07.09-.1l-.21.17s.06-.04.1-.06l-.25.11s.07-.02.11-.03l-.28.04s.09,0,.14,0l-.28-.04c.06.01.11.03.17.05l-.25-.11c.1.04.19.1.27.16l-.21-.17c.09.07.17.15.24.24l-.17-.21c.06.07.1.15.14.24l-.11-.25c.03.08.06.15.07.24l-.04-.28c0,.07,0,.15,0,.22l.04-.28c0,.06-.02.11-.04.17l.11-.25s-.05.09-.08.13l.17-.21s-.08.09-.12.12l.21-.17c-.05.04-.11.07-.17.1l.25-.11c-.07.03-.13.05-.2.06l.28-.04c-.06,0-.11,0-.17,0l.28.04s-.08-.02-.12-.03l.25.11s-.07-.04-.11-.06l.21.17s-.06-.05-.08-.08c-.1-.1-.21-.18-.34-.22-.13-.07-.26-.1-.41-.09-.26,0-.57.12-.75.31s-.32.47-.31.75l.04.28c.05.18.14.33.27.47.18.22.5.4.77.45.3.05.62.07.91-.05s.57-.25.77-.5c.07-.09.15-.18.21-.28s.1-.23.14-.32c.06-.16.08-.33.09-.5.03-.35-.09-.7-.25-1-.12-.23-.3-.45-.5-.62-.13-.1-.26-.21-.41-.29-.22-.12-.42-.19-.66-.22-.1-.01-.18-.03-.28-.02-.12.01-.24.02-.36.06-.25.08-.42.18-.61.35-.22.2-.38.5-.46.78-.09.33-.08.65-.02.98.01.08.04.15.07.22.07.16.13.33.23.47.2.28.43.54.74.71.29.16.64.27.97.25.16-.01.33-.03.49-.08.23-.09.38-.16.57-.31.31-.24.51-.54.65-.91.11-.31.11-.7.02-1.02-.23-.76-.97-1.37-1.79-1.35-.3,0-.5.08-.76.2-.08.04-.15.1-.22.15s-.14.1-.2.17c-.17.2-.3.4-.37.66-.03.12-.05.26-.04.39.02.29.06.37.17.63.07.12.16.22.27.3.1.09.22.16.36.19.25.07.59.04.82-.11s.42-.36.49-.63l.04-.28c0-.19-.05-.37-.14-.53h0Z"/>
    <path d="M132.83,367.91c-.02,1.57.37,3.16.93,4.63.58,1.54,1.33,2.98,2.35,4.27.35.45,1.13.37,1.5,0,.44-.44.36-1.05,0-1.5.07.09,0,0-.03-.04-.05-.07-.11-.15-.16-.22-.09-.12-.17-.25-.25-.38-.19-.3-.38-.61-.55-.93-.35-.64-.62-1.24-.86-1.89-.49-1.33-.83-2.62-.81-3.94s-2.1-1.36-2.12,0h0Z"/>
    <path d="M139.94,366.75c.07.08.13.17.2.25.13.16-.14-.18-.02-.03.04.06.09.12.13.18.17.22.34.45.5.68.39.53.76,1.06,1.14,1.59.67.95,1.33,1.91,1.94,2.91.29.47.96.69,1.45.38s.69-.94.38-1.45c-.62-1.02-1.3-2-1.99-2.98-.72-1.03-1.45-2.05-2.24-3.03-.35-.43-1.14-.39-1.5,0-.42.46-.37,1.03,0,1.5h0Z"/>
    <path d="M128.83,381.68c9.38-3.69,19.29-8.73,24.27-17.97.65-1.2-1.18-2.27-1.83-1.07-4.7,8.73-14.14,13.5-23,17-1.25.49-.71,2.54.56,2.04h0Z"/>
    <path d="M127.91,381.52c4.04,7.09,8.32,14.03,12.84,20.82.75,1.13,2.58.07,1.83-1.07-4.52-6.79-8.8-13.74-12.84-20.82-.67-1.18-2.5-.12-1.83,1.07h0Z"/>
    <path d="M151.44,363.93c4.38,5.34,8.61,10.8,12.99,16.15.86,1.05,2.35-.45,1.5-1.5-4.38-5.34-8.61-10.8-12.99-16.15-.86-1.05-2.35.45-1.5,1.5h0Z"/>
    <path d="M141.78,402.38c5.16-1.9,9.97-4.89,14.14-8.46,2.2-1.89,3.9-4.01,5.63-6.32,1.87-2.49,3.56-5.06,4.65-7.99.47-1.28-1.57-1.83-2.04-.56-.99,2.68-2.61,5.05-4.31,7.32s-3.31,4.25-5.43,6.06c-3.87,3.32-8.41,6.15-13.21,7.92-1.27.47-.72,2.51.56,2.04h0Z"/>
    <path d="M120.64,376.95c1.36,6.39,2.92,12.74,4.36,19.11.3,1.35.44,2.9.97,4.18.44,1.07,1.44,1.37,2.52,1.39,2.75.05,5.53-.79,8.15-1.55,1.31-.38.75-2.42-.56-2.04-2.29.67-4.66,1.39-7.06,1.47-.45.02-.88.1-1.13-.23-.29-.39-.32-1.47-.43-1.96-.32-1.44-.65-2.89-.98-4.33-1.27-5.53-2.6-11.05-3.79-16.61-.28-1.33-2.32-.77-2.04.56h0Z"/>
    <path d="M121.66,377.72c4,.3,7.99-1.08,11.57-2.73,4.47-2.06,8.8-4.72,12.27-8.24h-1.5l3.17,2.51c1.06.84,2.56-.65,1.5-1.5l-3.17-2.51c-.45-.35-1.06-.44-1.5,0-3.28,3.32-7.36,5.81-11.56,7.78-3.32,1.56-7.05,2.86-10.78,2.57-1.36-.1-1.35,2.01,0,2.12h0Z"/>
    <path d="M132.01,374.23c-.05-.25-.1-.5-.14-.76-.05-.35.02.2-.02-.16-.01-.11-.02-.22-.03-.33-.04-.5-.05-.99-.03-1.49.01-.24.03-.48.06-.72,0,0,.04-.34.02-.16.02-.13.04-.25.06-.38.09-.49.21-.97.36-1.45.17-.53-.2-1.18-.74-1.3-.58-.13-1.12.17-1.3.74-.67,2.12-.75,4.39-.28,6.56.12.54.78.91,1.3.74.57-.18.86-.72.74-1.3h0Z"/>
    <path d="M127.22,381.28c3.58,8.56,8.03,16.73,11.61,25.29.52,1.24,2.57.69,2.04-.56-3.58-8.56-8.03-16.73-11.61-25.29-.52-1.24-2.57-.69-2.04.56h0Z"/>
    <path d="M140.77,406.83c.44-.81.78-1.68,1.12-2.54.07-.19.15-.38.22-.57.04-.1.08-.21.13-.31-.11.25.04-.09.06-.14.2-.44.41-.87.66-1.29.28-.48.13-1.18-.38-1.45s-1.15-.13-1.45.38c-.49.85-.87,1.74-1.22,2.65-.15.39-.29.78-.46,1.16.12-.26-.03.07-.05.12-.04.1-.09.2-.14.3-.1.2-.2.4-.31.6-.26.49-.14,1.18.38,1.45s1.17.14,1.45-.38h0Z"/>
    <path d="M140.22,407.35c3.33-.63,6.23-2.43,9.14-4.08s5.66-3.16,8.09-5.35c5.1-4.62,7.41-10.74,9.02-17.27.33-1.32-1.71-1.89-2.04-.56-1.53,6.2-3.64,11.95-8.48,16.34-2.23,2.02-4.86,3.43-7.46,4.91-2.81,1.6-5.6,3.37-8.83,3.98-1.34.25-.77,2.29.56,2.04h0Z"/>
    <path d="M120.6,376.67c-.02,5.39-.16,10.78.16,16.16.25,4.18.4,8.3.3,12.48-.02.88,1.2,1.44,1.81.75,1.58-1.8,3.43-3.32,5.01-5.12.89-1.02-.6-2.52-1.5-1.5-1.58,1.8-3.43,3.32-5.01,5.12l1.81.75c.1-4.18-.04-8.3-.3-12.48-.33-5.38-.18-10.78-.16-16.16,0-1.36-2.11-1.36-2.12,0h0Z"/>
    <path d="M121.92,406.51c5.26,1.83,10.83.55,15.91-1.25,1.27-.45.73-2.5-.56-2.04-4.73,1.68-9.87,2.96-14.78,1.25-1.29-.45-1.84,1.6-.56,2.04h0Z"/>
    <path d="M104.03,338.13c-4.9.63-8.29,5.52-10.23,9.67-1.43,3.05-2.19,6.29-2.42,9.64-.48,7.16-.77,14.34-.95,21.52-.17,6.72-.21,13.44-.1,20.17,0,.37.2.73.52.91,2.61,1.43,5.75,2.13,8.66,2.57,7.73,1.15,15.59.03,22.96-2.46,1.28-.43.73-2.48-.56-2.04-7.06,2.39-14.67,3.58-22.1,2.42-2.66-.42-5.66-1.1-7.89-2.32l.52.91c-.17-10.36.02-20.73.47-31.08.13-3.01.29-6.02.47-9.03.12-2,.26-3.95.75-5.91.68-2.74,1.84-5.33,3.43-7.66,1.5-2.2,3.63-4.83,6.45-5.2,1.33-.17,1.35-2.29,0-2.12h0Z"/>
    <path d="M120.94,339.13c5.07,1.85,9.31,5.64,11.78,10.43.63,1.21,2.45.14,1.83-1.07-2.73-5.29-7.46-9.37-13.05-11.4-1.28-.47-1.83,1.58-.56,2.04h0Z"/>
  </g>
  <g>
    <path d="M238.53,366c.28-1.9.65-3.78,1.13-5.64.24-.95.52-1.89.81-2.82.23-.73.44-1.5.81-2.18.21-.39.53-.95,1.03-.96.63,0,1.3.76,1.71,1.17,1.16,1.14,2.06,2.53,2.63,4.05.2.53.72.9,1.3.74.51-.14.94-.76.74-1.3-.72-1.93-1.82-3.7-3.32-5.12-.68-.65-1.46-1.33-2.4-1.57s-1.95.09-2.66.77c-.67.63-1.07,1.5-1.38,2.35-.37,1-.68,2.04-.97,3.07-.64,2.26-1.13,4.56-1.47,6.89-.08.56.14,1.14.74,1.3.5.14,1.22-.17,1.3-.74h0Z"/>
    <path d="M248.67,358.49l-.04-.04c-.32-.28-.9-.46-1.28-.17-.35.27-.63.57-.59,1.05.04.43.3.94.78,1.02.71.12,1.07-.16,1.66-.51.55-.33,1.13-.63,1.73-.86,1.13-.44,2.32-.72,3.52-.86,2.86-.32,5.73.12,8.52.73,1.33.29,1.89-1.75.56-2.04-2.88-.64-5.86-1.11-8.82-.83-1.31.12-2.61.36-3.86.78s-2.27,1.1-3.42,1.68l.82-.11-.14-.02.78,1.02v-.08c-.18.3-.36.61-.53.91l.07-.05-1.28-.17.04.04c1.02.9,2.52-.59,1.5-1.5h0Z"/>
    <path d="M264.67,358.1c.43-1.72,1.02-3.39,1.82-4.98.19-.38.39-.76.6-1.12.06-.1.16-.38.29-.41.22-.05.58.32.71.44.26.26.48.55.7.84,2,2.65,3.35,5.73,4,8.98.11.56.78.88,1.3.74.58-.16.85-.74.74-1.3-.4-1.99-1.05-3.91-1.93-5.74s-1.9-3.56-3.25-4.95c-.69-.71-1.67-1.3-2.7-1.08s-1.55,1.14-2.01,2c-1.01,1.9-1.79,3.93-2.31,6.02-.33,1.32,1.71,1.89,2.04.56h0Z"/>
    <path d="M272.61,362.88c2.12,2.01,4.03,4.41,4.63,7.34.69,3.43-.78,6.91-2.05,10.03-.51,1.26,1.53,1.81,2.04.56,1.44-3.53,2.84-7.29,2.05-11.15-.67-3.26-2.81-6.03-5.17-8.27-.99-.94-2.49.56-1.5,1.5h0Z"/>
    <path d="M276.96,381.16c1.97-2.07,3.74-4.31,5.27-6.72.36-.56.7-1.13,1.03-1.71.26-.46.47-1.28,1.13-1,.98.41.98,1.92.97,2.78-.04,2.56-.96,5.09-2.04,7.39-.44.95-.92,1.94-1.66,2.7s-1.59,1.07-2.58,1.26c-1.34.26-.77,2.3.56,2.04,2.07-.41,3.62-1.6,4.7-3.4,1.25-2.07,2.17-4.51,2.72-6.86.5-2.14.88-5.03-.6-6.89-.68-.86-1.83-1.41-2.93-1.16-1.33.29-1.84,1.62-2.47,2.68-1.59,2.67-3.48,5.13-5.62,7.38-.94.99.56,2.49,1.5,1.5h0Z"/>
    <path d="M236.09,367c-1.06,3.16-1.88,6.47-1.34,9.82.22,1.38.7,2.75,1.44,3.95.38.61.83,1.19,1.35,1.7.56.55,1.17.99,1.51,1.71.58,1.23,2.4.16,1.83-1.07s-1.87-1.96-2.65-3.09c-.73-1.05-1.16-2.26-1.39-3.51-.55-3.02.34-6.1,1.29-8.95.44-1.29-1.61-1.85-2.04-.56h0Z"/>
    <path d="M256.61,368.46l.1-.5c.03-.15.04-.31.1-.44l-.11.25s.02-.05.04-.07l-.17.21s.02-.02.03-.03l-.21.17s.02-.01.02-.01l-.25.11s.02,0,.03,0l-.28.04s.03,0,.04,0l-.28-.04h.02c-.08-.03-.17-.07-.25-.1.02,0,.03.02.05.03l-.21-.17c.15.12.28.27.4.42l-.17-.21c.09.12.18.24.24.37l-.11-.25s.03.07.03.11l-.04-.28s0,.03,0,.05l.04-.28s0,.03-.01.05l.11-.25s-.01.02-.02.03l.17-.21s-.02.02-.03.02l.21-.17s-.03.02-.05.02l.25-.11c-.12.04-.27.05-.4.08-.14.03-.29.05-.43.08-.14.03-.26.1-.36.19-.12.07-.21.17-.27.3-.08.12-.12.25-.13.39-.03.14-.03.28.02.42.08.26.24.5.49.63l.25.11c.19.05.38.05.56,0,.14-.03.29-.05.43-.08.13-.02.27-.03.4-.08.29-.1.54-.27.7-.54.06-.09.1-.19.13-.3.01-.06.02-.12.03-.17,0-.06.02-.12.02-.17,0-.09-.02-.21-.04-.3,0-.01,0-.02,0-.04-.02-.07-.05-.14-.08-.2-.04-.1-.08-.19-.14-.28-.11-.18-.24-.34-.38-.5-.08-.1-.16-.19-.25-.27-.1-.09-.21-.2-.33-.26-.05-.03-.12-.05-.15-.07-.16-.07-.11-.05-.29-.08-.18-.02-.27-.04-.47.02-.09.03-.2.08-.29.12s-.18.12-.25.2c-.16.18-.24.34-.33.57-.05.13-.06.28-.09.42l-.1.49c-.04.14-.05.28-.02.42,0,.14.05.27.13.39.07.12.16.22.27.3.1.09.22.16.36.19.27.06.57.05.82-.11.22-.14.43-.36.49-.63h0Z"/>
    <path d="M255.81,368.89c.55,1.09,1.67,1.77,2.86,1.87.62.05,1.25-.11,1.8-.38.52-.25,1.05-.7,1.29-1.23.12-.27.19-.52.11-.82-.07-.25-.26-.51-.49-.63-.46-.25-1.2-.16-1.45.38-.02.05-.04.09-.07.14-.02.03-.11.15,0,.02.11-.14-.02.02-.04.04-.03.03-.06.06-.09.09-.1.1.02-.02.07-.04-.05.02-.09.06-.13.09-.08.05-.17.1-.26.14-.14.07.05-.04.07-.03-.02-.01-.13.05-.15.05-.09.03-.19.05-.28.07-.15.04.05-.02.09,0-.04-.02-.12,0-.16.01-.1,0-.19,0-.29,0-.15,0,.05,0,.09.01-.04-.02-.09-.02-.13-.03-.09-.02-.18-.05-.27-.08-.16-.06,0-.02.05.03-.03-.02-.08-.04-.11-.05-.08-.04-.16-.09-.24-.14-.14-.1,0-.02.04.04-.03-.03-.06-.05-.09-.08-.07-.06-.13-.13-.19-.2-.06-.07-.1-.17.03.05-.02-.03-.05-.07-.07-.1-.06-.09-.11-.18-.15-.27-.25-.5-.99-.68-1.45-.38-.51.33-.65.92-.38,1.45h0Z"/>
    <path d="M254.98,368.57c-.02.17-.03.33-.05.5l.04-.28c-.04.3-.1.6-.22.88l.11-.25c-.07.15-.15.3-.25.43l.17-.21c-.08.09-.16.18-.25.26l.21-.17c-.1.08-.2.14-.31.19l.25-.11c-.1.04-.21.07-.32.09l.28-.04c-.14.02-.28.02-.42,0l.28.04c-.21-.03-.41-.09-.61-.17l.25.11c-.2-.09-.38-.19-.56-.31-.22-.15-.57-.17-.82-.11s-.51.26-.63.49c-.28.54-.11,1.11.38,1.45.9.62,2.22.93,3.19.27.53-.36.87-.84,1.1-1.43.2-.51.24-1.07.29-1.61.02-.26-.13-.57-.31-.75s-.48-.32-.75-.31-.56.1-.75.31-.28.45-.31.75h0Z"/>
    <path d="M264.42,367.98c2.09-1.02,4.12-2.13,6.1-3.34.47-.29.69-.96.38-1.45s-.94-.69-1.45-.38c-1.98,1.21-4.02,2.32-6.1,3.34-.5.24-.67.99-.38,1.45.33.51.91.64,1.45.38h0Z"/>
    <path d="M264.95,370.69c2.76-.54,5.55-.92,8.36-1.14.57-.04,1.06-.45,1.06-1.06,0-.54-.49-1.1-1.06-1.06-2.99.23-5.97.64-8.92,1.21-.56.11-.88.78-.74,1.3.16.59.74.85,1.3.74h0Z"/>
    <path d="M250.55,368.19c-2.88-.55-5.79-.9-8.72-1.03-.57-.03-1.06.5-1.06,1.06,0,.59.48,1.03,1.06,1.06,2.74.12,5.46.44,8.16.95.56.11,1.14-.16,1.3-.74.14-.52-.18-1.19-.74-1.3h0Z"/>
    <path d="M249.69,371.49c-.69-.13-1.33-.06-2.02,0s-1.41.15-2.11.25c-1.28.18-2.55.44-3.76.89-.53.2-.9.72-.74,1.3.14.51.76.94,1.3.74,1.13-.42,2.3-.68,3.49-.85.5-.07,1.08-.14,1.62-.19s1.2-.19,1.67-.1c.56.1,1.14-.16,1.3-.74.14-.52-.17-1.2-.74-1.3h0Z"/>
    <path d="M259.19,364.45c.03-.05.06-.1.1-.16.12-.18-.11.13-.04.05s.15-.17.24-.24.18-.09-.05.04c.05-.02.09-.06.13-.09.1-.06.21-.12.32-.17l-.25.11c.16-.06.32-.11.5-.14l-.28.04c.2-.03.4-.03.6,0l-.28-.04c.2.03.39.08.58.16l-.25-.11c.33.15.64.33.98.47.23.1.61.01.82-.11.22-.13.43-.38.49-.63.06-.27.05-.57-.11-.82s-.36-.37-.63-.49l-.06-.02.25.11c-.41-.19-.79-.44-1.23-.55-.52-.13-1.05-.13-1.57-.02-.86.19-1.62.79-2.05,1.54-.28.48-.13,1.18.38,1.45s1.15.13,1.45-.38h0Z"/>
    <path d="M254.01,363.9c-.35-.75-1.16-1.33-1.97-1.47-.49-.08-.98-.08-1.46.07s-.9.4-1.29.73c-.2.16-.31.5-.31.75,0,.26.12.57.31.75s.47.32.75.31.52-.12.75-.31c.03-.02.05-.04.08-.06l-.21.17c.16-.12.33-.22.51-.31l-.25.11c.19-.08.37-.13.57-.16l-.28.04c.18-.02.36-.02.54,0l-.28-.04c.15.02.29.06.43.12l-.25-.11c.15.06.29.15.43.25l-.21-.17c.12.09.22.2.32.31l-.17-.21c.07.1.13.2.18.31.11.23.4.42.63.49.25.07.59.04.82-.11s.42-.36.49-.63c.07-.29.02-.55-.11-.82h0Z"/>
    <path d="M225.16,381.04c.16-.49.34-.98.54-1.46-.03.08-.03.06.02-.05.03-.07.06-.14.09-.2.05-.1.09-.2.14-.3.1-.21.2-.42.32-.63.1-.18.21-.35.32-.53.15-.23-.14.14.05-.06.08-.09.15-.17.24-.25.05-.05.25-.16.05-.04.02-.01.3-.18.16-.11-.13.07.15-.04.19-.05-.24.07.04.01.11,0,.08,0,.06,0-.06-.01.06.01.11.03.17.04.22.04-.1-.08.07.03.1.06.21.12.31.19-.18-.14.05.06.07.07.09.09.17.18.25.28-.12-.14.02.04.05.09.13.19.23.4.32.61-.07-.17.03.1.05.13.05.13.09.26.13.4.07.23.12.47.17.71s.09.48.13.73c.02.1.03.21.05.31-.03-.2.03.2.03.24.07.55.44,1.09,1.06,1.06.51-.02,1.13-.47,1.06-1.06-.25-1.94-.55-4.09-2.23-5.35-.8-.6-1.82-.76-2.75-.37-.84.35-1.43,1.11-1.85,1.89-.53.99-.96,2.05-1.31,3.11-.17.53.2,1.18.74,1.3.58.13,1.12-.18,1.3-.74h0Z"/>
    <path d="M218.35,381.57c2.81.74,5.67,1.26,8.56,1.56s5.83.17,8.67.77c1.33.28,1.9-1.76.56-2.04-2.82-.59-5.72-.51-8.58-.78s-5.81-.81-8.65-1.55c-1.32-.35-1.88,1.7-.56,2.04h0Z"/>
    <path d="M235.12,382.95c.36,2.96.59,5.94.68,8.93.04,1.47.04,2.93.03,4.4,0,.95.09,1.91-.02,2.86-.15,1.35,1.97,1.34,2.12,0,.1-.9.02-1.8.02-2.7,0-1.52.01-3.04-.03-4.56-.09-2.98-.32-5.96-.68-8.93-.07-.57-.44-1.05-1.06-1.06-.52,0-1.13.49-1.06,1.06h0Z"/>
    <path d="M217.5,380.34c-1.47,5.39-2.83,10.82-4.07,16.27-.3,1.33,1.74,1.89,2.04.56,1.24-5.45,2.59-10.88,4.07-16.27.36-1.32-1.68-1.88-2.04-.56h0Z"/>
    <path d="M214.51,397.96c3.56.91,7.17,2.12,10.84,2.44s7.41-.04,11.07-.16c1.36-.04,1.36-2.16,0-2.12-3.53.11-7.14.44-10.67.19s-7.2-1.51-10.68-2.4c-1.32-.34-1.88,1.7-.56,2.04h0Z"/>
    <path d="M236.73,379.07c-1.4-.7-2.63-1.63-3.66-2.81s-1.66-2.81-2.96-3.78c-.63-.47-1.44-.77-2.23-.7-.92.08-1.56.6-2.1,1.31-.49.64-.8,1.23-.89,2.05-.07.62.02,1.22-.01,1.84-.07,1.36,2.05,1.36,2.12,0,.03-.49-.05-.99-.02-1.48s.24-.84.56-1.22c.3-.37.54-.48,1-.29.56.23.93.76,1.24,1.25.75,1.16,1.5,2.28,2.5,3.25s2.16,1.8,3.41,2.43c.51.26,1.15.14,1.45-.38.27-.47.13-1.19-.38-1.45h0Z"/>
    <path d="M216.08,376.8c2.38,1.16,4.87,2.07,7.44,2.7.55.14,1.15-.18,1.3-.74s-.18-1.16-.74-1.3c-2.4-.59-4.73-1.42-6.94-2.49-.51-.25-1.14-.14-1.45.38-.27.46-.14,1.2.38,1.45h0Z"/>
    <path d="M215.48,375.42c-1.92,3.9-3.91,7.77-5.74,11.71-.43.93-.84,1.87-1.22,2.81-.33.81-.73,1.68-.2,2.49.5.75,1.62,1.17,2.39,1.58.97.52,1.95,1.02,2.94,1.49,1.22.59,2.3-1.24,1.07-1.83-.83-.4-1.66-.81-2.48-1.25-.41-.22-.81-.44-1.22-.66-.2-.11-.4-.23-.6-.34-.31-.28-.39-.24-.25.14,0-.36.33-.89.47-1.22.19-.45.38-.9.58-1.35.36-.8.73-1.59,1.11-2.37,1.64-3.39,3.32-6.76,4.99-10.13.6-1.22-1.22-2.29-1.83-1.07h0Z"/>
    <path d="M236.92,392.45c.93.28,2.13.46,2.98.93l-.49-.63c-.04-.15.13-.15-.06.12-.16.22-.17.6-.22.87-.09.41-.16.82-.21,1.24-.13,1.01-.16,2.03-.05,3.04.06.54.2.88.63,1.19.4.29.88.5,1.33.71,2.47,1.18,5.14,1.95,7.82,2.46,4.82.93,9.78,1.09,14.67.75,3.35-.23,6.69-.68,10-1.31,1.93-.36,3.85-.79,5.76-1.27s4.17-.86,6-1.71c5.03-2.35-3.21-10.41-4.94-12.5-.87-1.05-2.36.45-1.5,1.5,1.46,1.77,3.02,3.47,4.32,5.37.57.83,2.32,3.01,1.1,3.77-.59.37-1.69.5-2.36.69-.91.26-1.82.5-2.74.73-1.72.44-3.44.83-5.18,1.18-2.95.59-5.92,1.04-8.91,1.31-7.16.64-14.76.41-21.55-2.2-.89-.34-1.94-.77-2.84-1.38l.52.91c-.12-1.09-.14-2.19.04-3.28.12-.78.56-1.62.49-2.4-.15-1.57-2.88-1.79-4.05-2.14-1.31-.39-1.87,1.65-.56,2.04h0Z"/>
  </g>
  <g class="st2">
    <path d="M482.17,377.37c7.92-2.59,16.66-1.72,23.88,2.45,1.32.76,2.52-1.29,1.2-2.05-7.74-4.46-17.21-5.47-25.71-2.68-1.44.47-.83,2.76.63,2.29h0Z"/>
    <path d="M468.75,383.76c-.73-3.39-1.08-6.88-1.14-10.35-.02-1.58.05-3.18.49-4.71.2-.7.47-1.37.85-2,.43-.72.89-.82,1.72-.82,2.76.01,5.53,1.92,7.62,3.57,1,.79,1.95,1.59,2.72,2.61.87,1.15,1.63,2.38,2.53,3.51.95,1.2,2.62-.49,1.68-1.68-1.61-2.03-2.8-4.21-4.87-5.83-1.94-1.52-3.9-2.87-6.2-3.81-1.31-.53-2.73-.86-4.14-.73s-2.37.73-3.11,1.96c-1.44,2.41-1.71,5.31-1.66,8.06.07,3.62.46,7.28,1.22,10.82.32,1.49,2.61.86,2.29-.63h0Z"/>
    <path d="M504.08,376.45c1.83-2.44,4.13-4.53,6.72-6.15,1.25-.78,2.56-1.47,3.92-2.02.68-.28,1.38-.52,2.08-.73.4-.12.81-.24,1.21-.34.2-.05.41-.1.61-.15-.15-.23-.18-.26-.08-.09.5.54.8,1.59,1.07,2.26.29.73.54,1.48.76,2.23.43,1.52.73,3.07.85,4.65.25,3.28-.17,6.53-1.24,9.63-.5,1.45,1.79,2.07,2.29.63,1.93-5.61,1.86-11.9-.24-17.46-.45-1.18-.92-2.75-1.82-3.68-1.03-1.05-2.7-.39-3.89-.03-2.66.79-5.21,2-7.51,3.55-2.62,1.77-4.88,3.96-6.78,6.49-.92,1.22,1.14,2.4,2.05,1.2h0Z"/>
    <path d="M469.91,381c-4.17,4.99-7.8,11.08-7.03,17.84.07.64.49,1.18,1.19,1.19.58,0,1.26-.55,1.19-1.19-.71-6.15,2.54-11.62,6.33-16.17.97-1.16-.7-2.85-1.68-1.68h0Z"/>
    <path d="M519.56,387.45c2.22,3.26,3.07,7.33,2.23,11.2-.32,1.49,1.96,2.12,2.29.63.97-4.46.11-9.24-2.46-13.03-.85-1.26-2.91-.07-2.05,1.2h0Z"/>
    <path d="M488.25,379.69c-.2.18-.3.4-.39.65,0,.02-.02.05-.02.07-.02.11-.05.27-.05.4s.03.26.05.39c0,.03.01.06.02.08.04.11.09.21.13.32,0,.01.01.02.02.04.06.11.16.22.23.31.02.02.03.04.05.06.09.08.19.17.3.23.01,0,.02.01.04.02.09.04.2.09.29.12,0,0,.02,0,.02,0,.12.04.29.05.39.06.03,0,.05,0,.08,0,.1-.01.28-.02.4-.06.28-.1.44-.18.65-.39.06-.05.1-.12.15-.18.05-.06.1-.12.14-.19.06-.11.11-.23.15-.35.01-.03.02-.06.02-.09.02-.13.05-.26.05-.39s-.03-.29-.05-.4c0-.03-.01-.05-.02-.08-.04-.11-.09-.22-.13-.32,0-.01-.01-.03-.02-.04-.15-.24-.32-.4-.55-.55-.01,0-.03-.02-.05-.03-.1-.05-.21-.09-.31-.13-.03-.01-.07-.03-.11-.03-.12-.02-.24-.04-.35-.05-.02,0-.03,0-.05,0s-.04,0-.05,0c-.12,0-.24.03-.36.05-.03,0-.07.01-.1.02-.12.05-.26.09-.37.16,0,0-.01,0-.02.01-.09.06-.17.13-.26.2-.02.01-.03.03-.05.04,0,0,0,.01-.01.02-.07.08-.14.17-.2.26-.01.02-.02.03-.03.05-.16.28-.2.49-.22.8,0,.04,0,.07,0,.11.01.11.02.29.07.42,0,0,0,.02,0,.02.04.1.08.21.13.3,0,.02.02.03.03.05.07.12.16.23.25.33.11.12.23.2.38.25.14.07.29.11.46.1.16,0,.32-.03.46-.1.15-.05.27-.13.38-.25l.19-.24c.11-.18.16-.38.16-.6l-.04-.32c-.06-.2-.16-.38-.3-.52-.02-.02-.03-.03-.04-.05l.19.24s-.04-.06-.06-.1l.12.28s-.03-.09-.04-.13l.04.32s0-.09,0-.14l-.04.32s.02-.09.04-.13l-.12.28s.03-.07.06-.1l-.19.24s.05-.05.07-.08l-.24.19s.06-.04.1-.06l-.28.12s.09-.03.13-.04l-.32.04s.09,0,.14,0l-.32-.04s.1.02.14.04l-.28-.12s.07.03.1.06l-.24-.19s.06.05.08.08l-.19-.24s.04.06.05.09l-.12-.28s.02.07.03.1l-.04-.32s0,.08,0,.13l.04-.32s-.02.1-.04.14l.12-.28s-.04.08-.07.12l.19-.24s-.05.06-.08.08l.24-.19s-.06.04-.09.05l.28-.12s-.06.02-.09.03l.32-.04s-.06,0-.09,0l.32.04s-.06-.01-.09-.02l.28.12s-.06-.03-.08-.05l.24.19s-.06-.05-.09-.09l.19.24s-.05-.07-.07-.11l.12.28s-.03-.08-.04-.13l.04.32s0-.08,0-.12l-.04.32s.01-.06.02-.09l-.12.28s.03-.05.04-.07l-.19.24s.03-.03.04-.04c.12-.11.2-.23.25-.38.07-.14.11-.29.1-.46,0-.16-.03-.32-.1-.46-.05-.15-.13-.27-.25-.38l-.24-.19c-.18-.11-.38-.16-.6-.16l-.32.04c-.2.06-.38.16-.52.3h0Z"/>
    <path d="M498,381.79s.01,0,.02-.01c.02-.02.22-.17.24-.19.08-.08.12-.12.2-.26,0,0,.01-.01.01-.02.02-.04.11-.25.12-.29,0,0,0-.01,0-.02s0-.01,0-.02c0-.03.04-.29.04-.32,0-.01,0-.02,0-.03,0-.04-.03-.28-.04-.32,0,0,0-.01,0-.02,0-.01,0-.02-.01-.03-.03-.08-.08-.24-.15-.34-.04-.05-.15-.19-.19-.24,0,0,0-.01-.01-.02-.04-.04-.11-.09-.15-.12-.04-.03-.09-.08-.14-.11-.04-.03-.15-.06-.16-.07.02,0-.1-.05-.15-.06-.01,0-.02,0-.03,0-.04,0-.28-.04-.32-.04,0,0-.02,0-.03,0,0,0-.01,0-.02,0-.09,0-.24.02-.33.04-.01,0-.03,0-.04.01-.09.03-.21.08-.3.12,0,0-.01,0-.02,0-.06.03-.11.08-.16.12-.06.05-.13.09-.18.15-.07.08-.14.18-.21.27-.01.02-.02.03-.03.05,0,.01-.02.03-.02.05-.05.1-.09.21-.13.32-.01.03-.02.06-.03.1-.02.13-.05.27-.05.4,0,.04,0,.07,0,.11.01.13.03.26.05.39,0,.04.02.07.03.1.05.12.09.24.15.35.02.03.04.06.06.09.07.1.15.21.24.3s.2.17.31.24c.03.02.05.03.08.04.12.05.23.11.36.14.01,0,.03,0,.05,0,.11.02.23.04.35.05.03,0,.06,0,.09,0,.11,0,.23-.03.35-.05.02,0,.03,0,.05,0,.03,0,.06-.02.09-.03.27-.11.45-.18.66-.39.2-.2.29-.39.39-.65.03-.08.03-.16.04-.24.01-.08.03-.16.02-.24,0-.12-.03-.24-.05-.35,0-.02,0-.03,0-.05-.03-.12-.1-.26-.15-.36-.01-.03-.03-.05-.05-.08-.07-.09-.13-.19-.21-.27-.01-.01-.02-.02-.03-.03-.08-.07-.17-.14-.26-.2-.01,0-.03-.02-.04-.02-.05-.02-.12-.05-.16-.07-.03-.01-.11-.05-.16-.07-.02,0-.03,0-.05-.01-.16-.05-.32-.06-.47-.02-.16,0-.3.05-.44.14-.14.07-.25.18-.33.31-.1.11-.18.25-.21.4l-.04.32c0,.21.05.41.16.6l.19.24c.15.15.32.25.52.3.02,0,.05.01.07.02l-.28-.12s.05.02.07.04l-.24-.19s.05.04.06.06l-.19-.24s.04.06.05.09l-.12-.28s.03.07.03.11l-.04-.32s0,.08,0,.12l.04-.32s-.01.06-.02.09l.12-.28s-.03.06-.05.08l.19-.24s-.05.05-.07.07l.24-.19s-.06.04-.09.05l.28-.12s-.09.03-.14.04l.32-.04s-.1,0-.14,0l.32.04s-.09-.02-.13-.03l.28.12s-.07-.04-.1-.06l.24.19s-.07-.06-.1-.1l.19.24s-.06-.09-.08-.13l.12.28c-.02-.06-.04-.12-.05-.18l.04.32c0-.07,0-.13,0-.2l-.04.32c0-.05.02-.1.04-.15l-.12.28s.04-.08.07-.11l-.19.24s.04-.05.07-.07l-.24.19s.04-.02.06-.03l-.28.12s.04-.01.06-.02l-.32.04s.03,0,.05,0l-.32-.04s.03,0,.05.01l-.28-.12s.02.01.04.02l-.24-.19s.03.03.04.04l-.19-.24s.02.03.03.05l-.12-.28s.01.04.02.06l-.04-.32s0,.03,0,.05l.04-.32s0,.02,0,.03l.12-.28s-.01.02-.02.03l.19-.24s-.01.01-.02.02l.24-.19s-.01,0-.02.01c-.14.07-.25.18-.33.31-.1.11-.18.25-.21.4-.05.16-.06.32-.02.47,0,.16.05.3.14.44l.19.24c.15.15.32.25.52.3l.32.04c.21,0,.41-.05.6-.16h0Z"/>
    <path d="M492.72,385.84c.23-.1.36-.33.44-.55.04-.11.06-.23.11-.34l-.06.14s.04-.07.06-.1l-.09.12s.04-.05.07-.07l-.12.09s.06-.04.1-.06l-.14.06s.1-.03.15-.04l-.16.02c.06,0,.11,0,.16,0l-.16-.02c.06,0,.12.02.18.05l-.14-.06c.06.03.11.06.17.1l-.12-.09c.07.05.12.11.17.18l-.09-.12c.13.17.22.37.3.56l-.06-.14s.03.07.03.11l-.02-.16s0,.03,0,.04l.02-.16s0,.03,0,.04l.06-.14v.02s.05-.08.08-.12c0,.01-.02.02-.03.03l.12-.09h-.02s.09-.03.14-.05c-.01,0-.03.01-.05.01l.16-.02c-.21.02-.42,0-.63,0-.22,0-.44,0-.66,0-.31,0-.61.27-.59.59s.26.59.59.59c.38,0,.75,0,1.13,0,.12,0,.23,0,.35-.03.23-.06.43-.26.49-.49.07-.29-.04-.53-.15-.78-.15-.34-.37-.65-.68-.85-.3-.19-.73-.25-1.07-.13-.24.09-.46.25-.58.48-.08.17-.11.35-.18.52l.06-.14s-.03.07-.06.1l.09-.12s-.02.03-.04.04l.12-.09s-.04.03-.07.04c-.13.06-.24.23-.27.35-.04.14-.02.33.06.46s.2.24.35.27c.16.04.3,0,.46-.06h0Z"/>
    <path d="M491.82,385.54c0,.18.03-.11.02-.11.01.01-.03.11-.03.13,0,.03-.09.24-.01.05.07-.17,0-.03-.02,0s-.05.08-.07.11c-.07.12.16-.17.06-.08-.07.07-.16.14-.22.21.04-.04.2-.14.06-.06-.04.03-.08.05-.13.08s-.09.05-.13.07c-.02.01-.25.11-.06.03.17-.07,0,0-.03,0-.05.02-.09.03-.14.05-.11.03-.22.06-.33.09s-.21.05-.31.07c-.05.01-.11.02-.16.03-.19.03.06,0,.07,0-.02.04-.31.02-.37.02s-.11,0-.16,0c-.15,0,.2.05.08.01-.1-.03-.19-.05-.29-.08-.16-.05.07.02.1.04-.03-.03-.08-.04-.12-.06s-.07-.06-.11-.07c.07.03.2.18.06.04-.03-.03-.06-.06-.09-.1-.09-.09.17.25.05.05-.33-.53-1.07-.78-1.62-.43s-.77,1.06-.43,1.62c.38.62,1.01,1.07,1.72,1.25s1.49.09,2.22-.09c.68-.17,1.32-.46,1.86-.92.56-.49.88-1.21.91-1.95.02-.62-.56-1.21-1.19-1.19-.66.03-1.16.52-1.19,1.19h0Z"/>
    <path d="M492.02,385.61c.01,1.71,1.21,3.21,2.88,3.6.85.2,1.79.22,2.64.05s1.54-.75,2.15-1.34c.45-.43.47-1.25,0-1.68s-1.2-.46-1.68,0c-.1.1-.2.19-.3.28-.06.05-.12.1-.17.15-.1.09-.04.05.03-.01-.09.09-.23.16-.34.22-.04.02-.08.04-.12.06l.11-.05s-.17.05-.2.06c0,0-.31.05-.15.03.14-.01-.08,0-.11,0-.15,0-.3.01-.45,0s-.32,0-.48-.02c-.06,0-.14,0-.19-.02l.13.02s-.09-.02-.14-.03c-.14-.03-.27-.07-.41-.11s-.07,0,.02.02c-.07-.01-.15-.07-.2-.11-.05-.03-.09-.06-.14-.09-.12-.07.17.16.01,0-.09-.09-.17-.18-.26-.26-.11-.11.11.18.03.04-.03-.06-.08-.11-.11-.17-.03-.05-.05-.1-.08-.15-.13-.23.05.16,0,.02-.03-.12-.07-.24-.1-.36-.04-.17.03.02,0,.07.02-.04-.01-.2-.01-.25,0-.62-.54-1.21-1.19-1.19s-1.19.52-1.19,1.19h0Z"/>
    <path d="M504.79,385.95c3.28.34,6.55.85,9.78,1.51.63.13,1.28-.18,1.46-.83.16-.59-.2-1.33-.83-1.46-3.44-.7-6.92-1.23-10.41-1.6-.64-.07-1.19.59-1.19,1.19,0,.7.55,1.12,1.19,1.19h0Z"/>
    <path d="M502.56,390.27l4.98,2.63,2.44,1.29,1.22.65c.2.11.41.21.61.32.09.05.19.1.28.15-.03-.03-.06-.06-.09-.09.75,1.33,2.8.14,2.05-1.2-.45-.8-1.5-1.15-2.27-1.56l-2.71-1.43c-1.78-.94-3.55-1.88-5.33-2.81-.57-.3-1.29-.14-1.62.43-.31.54-.14,1.32.43,1.62h0Z"/>
    <path d="M482.38,384.43c-2.82-.5-5.69-.64-8.54-.36-.64.06-1.19.5-1.19,1.19,0,.59.54,1.25,1.19,1.19,2.64-.26,5.3-.19,7.91.27.63.11,1.28-.17,1.46-.83.16-.57-.19-1.35-.83-1.46h0Z"/>
    <path d="M484.13,388.6c-4.13.99-8.13,2.54-11.85,4.59-1.34.74-.14,2.78,1.2,2.05,3.55-1.95,7.34-3.41,11.29-4.35,1.48-.35.86-2.64-.63-2.29h0Z"/>
  </g>
  <g class="st1">
    <g>
      <path d="M375.31,348.74c-.88-7.86.21-15.95,3.41-23.2.43-.97.75-1.51,1.89-1.14.81.27,1.59.66,2.33,1.09,1.53.89,2.89,2.03,4.11,3.3s2.29,2.61,3.29,4.03c.89,1.26,2.02,2.64,2.34,4.19.82,3.95-9.55,1.34-11.32.64-1.45-.57-2.08,1.77-.64,2.33,2.32.91,4.79,1.43,7.28,1.5,2.02.05,4.86.1,6.33-1.55,2.74-3.09-1.53-7.96-3.39-10.33-2.54-3.24-5.95-6.58-10.06-7.66-2.46-.65-3.65.93-4.52,2.99-.97,2.29-1.77,4.65-2.37,7.07-1.36,5.46-1.72,11.15-1.1,16.74.17,1.53,2.59,1.55,2.42,0h0Z"/>
      <path d="M383.61,340.3c-2.33,3.07-3.89,6.72-4.5,10.53-.1.64.17,1.3.84,1.49.58.16,1.38-.2,1.49-.84.58-3.63,2.03-7.02,4.25-9.95.4-.52.08-1.35-.43-1.65-.62-.36-1.26-.09-1.65.43h0Z"/>
      <path d="M361.45,348.53c-2.28-3.94-4.16-8.08-5.56-12.42-.67-2.07-1.24-4.18-1.69-6.31-.24-1.15-.51-2.31.57-3.1.89-.66,2.05-.63,3.08-.41,4.07.84,8.04,3.66,11.14,6.33.73.63,1.62,1.43,1.65,2.47s-.75,1.25-1.63,1.42c-2.44.48-4.95.68-7.43.83-1.55.1-1.56,2.52,0,2.42,2.44-.15,4.86-.41,7.28-.79,1.83-.29,3.61-.89,4.1-2.89s-.61-3.69-1.97-4.93c-1.52-1.39-3.25-2.62-4.97-3.74-3.14-2.05-8.06-4.94-11.87-3.13-1.78.85-2.76,2.58-2.56,4.54.23,2.25.94,4.53,1.59,6.69,1.49,4.97,3.59,9.75,6.19,14.24.78,1.35,2.87.13,2.09-1.22h0Z"/>
      <path d="M364.81,338.89c-.26,1.96-.31,3.88,0,5.83s.98,3.67,1.88,5.33c.74,1.37,2.83.15,2.09-1.22-1.54-2.87-2.08-6.07-1.64-9.3.09-.65-.16-1.3-.84-1.49-.56-.15-1.4.19-1.49.84h0Z"/>
      <path d="M393.03,362.34c3.34.33,6.7.33,10.03-.04,1.53-.17,3.06-.41,4.57-.72,1.42-.29,3.52-1.31,4.16.55.44,1.28.72,2.86.68,4.2-.05,1.62-.83,2.85-1.93,3.98-1.95,2.02-4.26,3.71-6.69,5.12-4.28,2.49-9.28,4.19-14.25,4.45-2.6.14-5.24-.03-7.82-.34-4.97-.6-10.08-1.96-14.11-5.04-1.23-.95-2.44,1.15-1.22,2.09,4.04,3.09,9.16,4.52,14.13,5.22,3,.42,6.08.67,9.11.49,5.77-.33,11.55-2.35,16.43-5.41,2.61-1.64,5.38-3.66,7.23-6.15,1.97-2.65,1.7-5.88.86-8.91-.4-1.45-1.21-2.74-2.76-3.11-1.74-.42-3.71.41-5.41.73-4.29.8-8.68.92-13.03.49-1.55-.15-1.54,2.27,0,2.42h0Z"/>
      <path d="M405.89,360.61c-.74.93-1.16,1.97-1.15,3.17.02,1.1.32,2.2.71,3.22.8,2.1,2.01,3.99,3.6,5.57l1.47-1.9c-1.03-.68-1.18-2.62-1.42-3.78-.18-.9-.35-1.8-.43-2.71-.04-.47-.06-.95-.06-1.42,0-.18.07-.45.02-.61-.04-.04-.03-.09.02-.15-.05.16-.18.28-.38.34h-.64c-.34-.35-.44-.4-.31-.17l.07.15c.08.18.16.35.23.53.12.27.24.55.35.83.28.7.54,1.41.76,2.13.41,1.34.68,2.71.52,4.11l2.06-.85c-.8-.8-1.42-1.82-1.79-2.92s-.54-2.27-.23-3.31c.08-.27.13-.3.25-.58.13-.3.11-.08-.04-.09-.38-.02-.25-.05-.21.03.05.1.2.22.26.32.09.14.16.3.23.45.14.31.25.64.35.97.49,1.56.59,3.17.39,4.79l1.21-1.21c.16.02-.15-.11-.18-.13-.07-.06-.17-.19-.23-.28-.27-.38-.43-.82-.57-1.27-.33-1.04-.45-2.09-.4-3.17l-1.53,1.17-.42-.86c-.14.64.19,1.31.84,1.49.61.17,1.35-.2,1.49-.84.2-.91-.28-1.94-1.27-2.12-.79-.14-1.49.33-1.53,1.17-.07,1.54.17,3.11.74,4.54s1.46,2.55,3.05,2.73c.71.08,1.13-.62,1.21-1.21.21-1.66.09-3.36-.34-4.97-.39-1.45-1.07-3.56-2.75-3.93s-2.76,1.45-3.01,2.91c-.24,1.36-.08,2.76.36,4.06.5,1.48,1.3,2.88,2.41,3.99.8.8,1.96.14,2.06-.85.17-1.56-.14-3.17-.58-4.67-.22-.75-.49-1.49-.78-2.22s-.56-1.52-.94-2.19c-.51-.88-1.68-1.17-2.46-.45-.68.63-.7,1.6-.71,2.47,0,1.85.36,3.68.74,5.48.37,1.7.83,3.41,2.36,4.43,1.16.76,2.43-.94,1.47-1.9-1.2-1.2-2.18-2.61-2.85-4.18-.53-1.24-1.28-3.17-.32-4.38.4-.51.5-1.21,0-1.71-.42-.42-1.3-.51-1.71,0h0Z"/>
      <path d="M371.4,355.52c1.96-.63,4.15.03,5.33,1.76s.63,4.13-.9,5.53c-1.3,1.19-3.37,1.88-5.03,1.39s-2.45-2.11-2.51-3.65c-.03-.99.2-1.88.71-2.78.54-.96,1.32-1.88,2.39-2.24.62-.21,1.02-.83.84-1.49-.17-.61-.86-1.05-1.49-.84-2.72.9-4.58,3.71-4.85,6.49-.25,2.52.92,5.31,3.27,6.46,2.47,1.21,5.53.55,7.67-1.06,2.51-1.89,3.76-5.3,2.4-8.26-1.44-3.13-5.24-4.68-8.48-3.64-1.47.48-.84,2.81.64,2.33h0Z"/>
      <path d="M373.62,358.97v-.02c.03.1.07.19.11.29,0-.02-.01-.04-.02-.07l.04.32s0-.08,0-.11l-.04.32s.01-.06.03-.09l-.12.29s.04-.08.07-.12l-.19.24s.07-.07.11-.11l-.24.19s.1-.07.16-.09l-.29.12s.1-.03.15-.04l-.32.04c.06,0,.12,0,.18,0l-.32-.04c.08.01.15.03.22.06l-.29-.12c.06.03.12.06.18.1l-.24-.19c.07.05.13.11.18.18l-.19-.24c.04.06.07.11.1.18l-.12-.29c.03.06.04.13.06.2l-.04-.32c0,.07,0,.14,0,.2l.04-.32c-.01.07-.03.13-.05.2l.12-.29c-.03.07-.07.14-.11.2l.19-.24c-.05.06-.1.12-.16.16l.24-.19c-.06.05-.13.09-.2.12l.29-.12c-.06.03-.13.04-.2.05l.32-.04c-.07,0-.14,0-.21,0l.32.04c-.08-.01-.15-.03-.22-.06l.29.12c-.08-.03-.15-.08-.22-.13l.24.19c-.08-.07-.16-.14-.22-.22l.19.24c-.06-.09-.12-.18-.16-.28l.12.29c-.04-.09-.07-.18-.08-.28l.04.32c-.01-.09-.01-.18,0-.27l-.04.32c.01-.08.03-.16.06-.24l-.12.29c.02-.05.05-.1.08-.15l-.19.24s.06-.07.1-.1l-.24.19s.07-.04.1-.06l-.29.12s.08-.03.12-.03l-.32.04s.1,0,.15,0l-.32-.04c.06.01.12.03.18.05l-.29-.12c.11.05.2.1.29.17l-.24-.19c.1.07.18.16.25.25l-.19-.24c.06.08.11.16.15.26l-.12-.29c.03.08.06.17.07.25l-.04-.32c.01.08.01.16,0,.24l.04-.32c0,.06-.02.12-.05.18l.12-.29c-.02.05-.05.1-.08.14l.19-.24s-.08.09-.13.13l.24-.19c-.06.04-.11.08-.18.11l.29-.12c-.07.03-.14.05-.22.06l.32-.04c-.06,0-.12,0-.18,0l.32.04s-.09-.02-.13-.03l.29.12s-.08-.04-.12-.07l.24.19s-.06-.05-.08-.09c-.11-.12-.24-.2-.39-.25-.14-.08-.3-.11-.47-.1-.3,0-.65.13-.85.35s-.37.53-.35.85l.04.32c.06.2.16.38.31.53.2.24.56.44.86.5.34.06.69.08,1.02-.05s.64-.28.86-.56c.08-.1.17-.2.24-.31s.12-.26.16-.36c.07-.17.08-.37.1-.55.03-.38-.1-.77-.27-1.11-.13-.25-.32-.5-.55-.68-.14-.11-.29-.24-.45-.33-.24-.13-.47-.21-.74-.25-.11-.01-.2-.03-.31-.02-.13.01-.28.02-.4.06-.28.09-.47.2-.69.4-.25.22-.42.56-.51.87-.11.37-.09.72-.02,1.09.01.08.04.16.07.24.07.18.14.36.25.52.22.32.48.6.82.79.32.17.71.3,1.08.27.18-.01.37-.03.54-.09.26-.1.42-.18.63-.34s.32-.29.47-.5c.11-.15.18-.34.25-.51.12-.34.12-.78.02-1.13-.26-.85-1.08-1.53-1.99-1.5-.33.01-.56.08-.86.23-.09.04-.16.11-.24.17s-.16.12-.22.19c-.2.23-.34.45-.42.74-.03.13-.06.29-.05.44.02.33.07.41.2.71.08.14.18.25.31.34.12.11.25.18.41.22.16.05.32.06.48.02.16,0,.31-.06.45-.14.26-.17.49-.41.56-.72l.04-.32c0-.22-.06-.42-.17-.61h0Z"/>
      <path d="M384.71,357.67v-.02c.03.1.07.19.11.29,0-.02-.01-.04-.02-.07l.04.32s0-.08,0-.11l-.04.32s.01-.06.03-.09l-.12.29s.04-.08.07-.12l-.19.24s.07-.07.11-.11l-.24.19s.1-.07.16-.09l-.29.12s.1-.03.15-.04l-.32.04c.06,0,.12,0,.18,0l-.32-.04c.08.01.15.03.22.06l-.29-.12c.06.03.12.06.18.1l-.24-.19c.07.05.13.11.18.18l-.19-.24c.04.06.07.11.1.18l-.12-.29c.03.06.04.13.06.2l-.04-.32c0,.07,0,.14,0,.2l.04-.32c-.01.07-.03.13-.05.2l.12-.29c-.03.07-.07.14-.11.2l.19-.24c-.05.06-.1.12-.16.16l.24-.19c-.06.05-.13.09-.2.12l.29-.12c-.06.03-.13.04-.2.05l.32-.04c-.07,0-.14,0-.21,0l.32.04c-.08-.01-.15-.03-.22-.06l.29.12c-.08-.03-.15-.08-.22-.13l.24.19c-.08-.07-.16-.14-.22-.22l.19.24c-.06-.09-.12-.18-.16-.28l.12.29c-.04-.09-.07-.18-.08-.28l.04.32c-.01-.09-.01-.18,0-.27l-.04.32c.01-.08.03-.16.06-.24l-.12.29c.02-.05.05-.1.08-.15l-.19.24s.06-.07.1-.1l-.24.19s.07-.04.1-.06l-.29.12s.08-.03.12-.03l-.32.04s.1,0,.15,0l-.32-.04c.06.01.12.03.18.05l-.29-.12c.11.05.2.1.29.17l-.24-.19c.1.07.18.16.25.25l-.19-.24c.06.08.11.16.15.26l-.12-.29c.03.08.06.17.07.25l-.04-.32c.01.08.01.16,0,.24l.04-.32c0,.06-.02.12-.05.18l.12-.29c-.02.05-.05.1-.08.14l.19-.24s-.08.09-.13.13l.24-.19c-.06.04-.11.08-.18.11l.29-.12c-.07.03-.14.05-.22.06l.32-.04c-.06,0-.12,0-.18,0l.32.04s-.09-.02-.13-.03l.29.12s-.08-.04-.12-.07l.24.19s-.06-.05-.08-.09c-.11-.12-.24-.2-.39-.25-.14-.08-.3-.11-.47-.1-.3,0-.65.13-.85.35s-.37.53-.35.85l.04.32c.06.2.16.38.31.53.2.24.56.44.86.5.34.06.69.08,1.02-.05s.64-.28.86-.56c.08-.1.17-.2.24-.31s.12-.26.16-.36c.07-.17.08-.37.1-.55.03-.38-.1-.77-.27-1.11-.13-.25-.32-.5-.55-.68-.14-.11-.29-.24-.45-.33-.24-.13-.47-.21-.74-.25-.11-.01-.2-.03-.31-.02-.13.01-.28.02-.4.06-.28.09-.47.2-.69.4-.25.22-.42.56-.51.87-.11.37-.09.72-.02,1.09.01.08.04.16.07.24.07.18.14.36.25.52.22.32.48.6.82.79.32.17.71.3,1.08.27.18-.01.37-.03.54-.09.26-.1.42-.18.63-.34s.32-.29.47-.5c.11-.15.18-.34.25-.51.12-.34.12-.78.02-1.13-.26-.85-1.08-1.53-1.99-1.5-.33.01-.56.08-.86.23-.09.04-.16.11-.24.17s-.16.12-.22.19c-.2.23-.34.45-.42.74-.03.13-.06.29-.05.44.02.33.07.41.2.71.08.14.18.25.31.34.12.11.25.18.41.22.16.05.32.06.48.02.16,0,.31-.06.45-.14.26-.17.49-.41.56-.72l.04-.32c0-.22-.06-.42-.17-.61h0Z"/>
      <path d="M392.37,399.17c-.76-3.69-1-7.47-.74-11.23.14-2.1.4-4.25,1.04-6.27.47-1.49-1.87-2.12-2.33-.64-.7,2.22-.96,4.61-1.12,6.91-.27,3.97.03,7.97.83,11.87.31,1.52,2.64.88,2.33-.64h0Z"/>
      <path d="M363.27,348.63c-3.35.41-6.8,2.38-8.69,5.22-1.34,2.01-2.2,4.39-3.03,6.65-2.74,7.45-4.66,15.23-6.27,23-1.02,4.92-1.86,9.86-2.5,14.84-.2,1.54,2.22,1.53,2.42,0,1.04-8.19,2.69-16.32,4.76-24.32,1.52-5.88,3.09-12.08,5.88-17.52,1.41-2.75,4.15-5.05,7.42-5.45,1.52-.19,1.54-2.61,0-2.42h0Z"/>
      <path d="M380.41,349.91c5.42,1.97,9.94,6.03,12.59,11.15.71,1.38,2.8.16,2.09-1.22-2.94-5.69-8.03-10.07-14.03-12.26-.61-.22-1.32.25-1.49.84-.18.67.23,1.26.84,1.49h0Z"/>
      <path d="M377.6,379.07c-1.23-.14-2.59.49-3.44,1.36-.42.43-.73.97-1.03,1.5-.25.44-.6,1.1-.85,1.37-.62.67-1.63.63-2.37.08-.85-.63-1.17-1.62-1.14-2.56.03-1,.55-2.09,1.41-2.67.47-.32.68-.93.38-1.44-.27-.47-.97-.7-1.44-.38-2.33,1.58-3.23,4.94-1.69,7.38.83,1.31,2.3,2.3,3.89,2.18.77-.06,1.49-.31,2.1-.79.57-.45.95-1.1,1.31-1.73.19-.33.37-.66.57-.98s.28-.45.59-.69c.52-.4,1.11-.6,1.72-.53.57.07,1.05-.53,1.05-1.05,0-.62-.49-.99-1.05-1.05h0Z"/>
      <path d="M372.63,377.86c-.83.23-1.44.89-1.87,1.6-.38.62-.64,1.31-.89,1.98-.09.24-.02.59.11.81s.38.43.63.48c.27.06.57.05.81-.11s.39-.36.48-.63c.09-.26.19-.51.29-.76l-.11.25c.2-.47.43-.94.74-1.35l-.16.21c.14-.18.29-.34.47-.48l-.21.16c.11-.08.22-.15.34-.2l-.25.11c.06-.02.12-.04.18-.06.53-.14.91-.76.74-1.3s-.73-.89-1.3-.74h0Z"/>
    </g>
  </g>
</svg>